<svg width="520" height="106" viewBox="0 0 520 106" fill="none" xmlns="http://www.w3.org/2000/svg">
<path fill-rule="evenodd" clip-rule="evenodd" d="M149.391 9.61857C66.5861 8.25036 66.0852 8.62838 63.598 11.437C62.2563 12.952 50.2254 14.9058 36.8628 15.7787C20.858 16.8243 11.2193 18.582 8.61791 20.9296C6.44595 22.8896 3.61834 24.4932 2.33439 24.4932C1.05044 24.4932 0 26.6824 0 29.3581C0 33.2359 1.62628 34.2229 8.01515 34.2229C12.4234 34.2229 16.0302 35.3175 16.0302 36.6554C16.0302 37.9932 13.8995 39.0878 11.2954 39.0878C4.45102 39.0878 2.47443 43.8979 9.17798 44.2407C12.2759 44.399 15.6338 44.399 16.64 44.2407C17.6463 44.0823 18.4696 45.0472 18.4696 46.3851C18.4696 47.7229 15.7253 48.8175 12.3712 48.8175C9.01701 48.8175 6.2727 49.9121 6.2727 51.2499C6.2727 52.5877 7.43067 53.6823 8.84589 53.6823C10.204 53.6823 16.0714 55.8419 22.1096 58.5493C19.0675 59.0183 17.2374 59.636 17.2374 60.31C17.2374 61.6479 21.3538 62.7574 26.385 62.7757C29.1411 62.7857 32.4461 63.0239 35.423 63.3909C38.8222 64.3287 42.5527 65.1698 46.7298 65.9261L47.7296 66.2044L40.4115 67.8343C36.2246 68.7668 39.7377 69.4743 50.4009 69.8749C52.945 70.1044 53.9871 71.4159 53.2049 73.4487C53.0679 73.8048 52.998 74.1534 52.9924 74.491C39.2808 74.1654 25.946 73.5111 19.6768 72.6003C6.53572 70.6912 2.78992 71.0388 5.66037 73.9011C8.11346 76.3472 25.4245 80.1469 32.9055 79.8812C36.8272 79.742 40.8391 80.924 41.8208 82.5079C42.8025 84.0919 47.2456 85.2846 51.6943 85.1585C52.7912 85.1274 53.9077 85.153 54.9882 85.226C53.4004 86.8206 54.6719 87.4785 59.508 89.6758C60.4363 90.0975 61.322 90.5951 62.1273 91.1328C57.8156 91.1766 51.9974 91.1129 45.2901 90.9273C6.99024 89.8677 19.601 93.4445 61.765 95.6C63.2391 95.6754 64.7136 95.7534 66.1807 95.8334C66.1882 95.9007 66.1919 95.9667 66.1919 96.0315C66.1919 97.8569 69.7082 100.052 74.0057 100.909C80.6853 102.241 81.1278 102.737 77.0549 104.326C74.4344 105.348 105.771 106.097 146.691 105.99C187.612 105.883 216.152 105.03 210.115 104.094C200.737 102.64 200.204 102.282 206.456 101.639C208.816 101.396 223.951 101.085 245.402 100.803C266.853 101.085 281.988 101.396 284.349 101.639C290.601 102.282 290.068 102.64 280.69 104.094C274.652 105.03 303.193 105.883 344.113 105.99C385.034 106.097 416.37 105.348 413.75 104.326C409.677 102.737 410.119 102.241 416.799 100.909C421.096 100.052 424.612 97.8569 424.612 96.0315C424.612 95.9667 424.616 95.9007 424.624 95.8334C426.091 95.7534 427.565 95.6754 429.039 95.6C471.203 93.4445 483.814 89.8677 445.514 90.9273C438.807 91.1129 432.989 91.1766 428.677 91.1328C429.482 90.5951 430.368 90.0975 431.296 89.6758C436.133 87.4785 437.404 86.8206 435.816 85.226C436.897 85.153 438.013 85.1274 439.11 85.1585C443.559 85.2846 448.002 84.0919 448.984 82.5079C449.965 80.924 453.977 79.742 457.899 79.8812C463.031 80.0635 472.788 78.3328 479.201 76.4383C480.041 76.2445 480.686 76.04 481.142 75.8244C483.106 75.1553 484.554 74.4891 485.144 73.9011C485.288 73.758 485.414 73.6213 485.524 73.4908C487.422 72.8996 489.688 72.5263 491.783 72.5263C497.698 72.5263 498.682 71.7051 497.622 67.6615C496.649 63.9519 497.547 62.7966 501.403 62.7966C504.184 62.7966 505.737 62.0763 504.854 61.1961C504.601 60.9428 504.465 60.5762 504.439 60.1378C514.053 59.4825 520.323 58.6036 519.728 57.6109C519.063 56.5004 513.646 54.8614 507.438 53.8569C507.494 53.4114 507.244 53.2102 506.669 53.3541C504.564 53.8815 498.279 51.2384 494.341 48.7171C494.189 47.7368 492.91 46.488 491.017 45.3419C491.149 44.355 493.016 44.1112 495.279 44.8132C498.478 45.805 498.325 45.3827 494.669 43.1282C493.863 42.6312 493.022 42.0293 492.211 41.3817C494.776 41.47 497.948 41.6164 501.784 41.8155C514.521 42.4771 522.417 42.4051 519.332 41.6555C515.172 40.6452 514.387 39.5166 516.298 37.2909C518.278 34.985 515.645 33.6288 504.942 31.4416C489.884 28.3645 480.336 25.0442 479.037 22.6223C481.75 21.7232 483.692 20.468 483.692 19.2901C483.692 19.0713 482.864 18.8744 481.364 18.7053C481.206 15.762 473.279 12.3788 461.365 10.6705C453.685 9.56918 449.05 8.51634 451.065 8.33123C454.065 8.05533 453.981 7.54334 450.599 5.50744C448.326 4.1399 439.828 3.47034 431.714 4.01919C422.905 4.61552 416.975 4.06097 416.997 2.64304C417.042 -0.302734 377.892 -0.934044 346.264 1.50183C300.113 5.05628 288.595 5.50605 296.221 3.4556C302.268 1.83022 301.051 1.49008 289.357 1.53651C281.54 1.56777 274.649 2.36536 274.044 3.30888C273.519 4.12719 271.315 4.81265 267.26 5.37484C261.564 4.55486 257.824 3.78799 257.284 3.24951C256.587 2.55475 253.273 1.98549 249.919 1.98549C242.24 1.98549 244.259 4.2312 253.427 5.88898C254.291 6.04517 255.135 6.21124 255.93 6.37923C243.771 7.08987 225.187 7.42099 199.16 7.42858C170.121 7.43712 154.226 8.12822 149.391 9.61857ZM472.801 61.2848C480.132 61.1921 487.409 60.9933 493.967 60.7089C494.336 62.5279 493.286 63.9025 491.62 63.7695C489.943 63.6357 482.259 63.3287 474.544 63.0877C471.179 62.9824 468.652 62.8575 466.858 62.6785C469.52 62.4717 471.703 61.9526 472.801 61.2848ZM46.5101 80.8421C46.5101 81.4321 47.6079 82.5913 48.9496 83.4181C50.2913 84.2449 51.3889 83.7622 51.3889 82.3454C51.3889 80.9287 50.2913 79.7695 48.9496 79.7695C47.6079 79.7695 46.5101 80.2521 46.5101 80.8421ZM403.878 101.661C403.049 102.999 403.533 104.094 404.954 104.094C406.375 104.094 407.537 102.999 407.537 101.661C407.537 100.323 407.053 99.2289 406.461 99.2289C405.87 99.2289 404.707 100.323 403.878 101.661ZM333.746 103.474C346.157 103.915 366.464 103.915 378.875 103.474C391.285 103.032 381.131 102.671 356.31 102.671C331.49 102.671 321.336 103.032 333.746 103.474ZM444.294 80.8421C444.294 81.4321 443.197 82.5913 441.855 83.4181C440.513 84.2449 439.415 83.7622 439.415 82.3454C439.415 80.9287 440.513 79.7695 441.855 79.7695C443.197 79.7695 444.294 80.2521 444.294 80.8421ZM86.9263 101.661C87.7555 102.999 87.2716 104.094 85.8506 104.094C84.4297 104.094 83.2672 102.999 83.2672 101.661C83.2672 100.323 83.7513 99.2289 84.343 99.2289C84.9345 99.2289 86.0971 100.323 86.9263 101.661ZM157.058 103.474C144.648 103.915 124.34 103.915 111.93 103.474C99.5195 103.032 109.673 102.671 134.494 102.671C159.315 102.671 169.468 103.032 157.058 103.474ZM84.9424 14.0479C81.9237 14.6277 76.9839 14.6277 73.9652 14.0479C70.9465 13.4681 73.4163 12.9938 79.4538 12.9938C85.4912 12.9938 87.9611 13.4681 84.9424 14.0479Z" fill="black"/>
</svg>
