<svg width="568" height="330" viewBox="0 0 568 330" fill="none" xmlns="http://www.w3.org/2000/svg">
<path d="M88.4863 328.378C88.3798 328.378 88.3017 328.38 88.2272 328.38C87.8189 328.429 87.3397 328.487 86.9705 328.533L88.4863 328.378Z" fill="black"/>
<path d="M562.711 7.63718C558.575 7.43664 554.219 7.22595 549.668 7.0051C545.33 6.83502 540.8 6.6548 536.11 6.46949C530.132 6.19533 523.731 5.97957 517.04 5.81457C503.656 5.48203 489.108 5.34241 474.45 5.32464C445.134 5.2891 415.382 5.73587 393.627 6.06587C332.443 8.07888 261.624 -1.05961 198.966 1.36209C196.939 1.04478 191.65 1.60071 191.685 1.82917L134.445 0.620852C134.445 0.620852 117.096 0.293388 94.3616 0.113157C82.9945 0.0243102 70.2819 -0.0289931 57.7149 0.0166993C50.7782 0.0547764 43.884 0.0953858 37.2349 0.133463C32.5027 0.153771 27.8593 0.174084 23.3402 0.194391C21.1392 0.212161 18.9666 0.22993 16.8295 0.247699L16.4318 0.252773C16.3679 0.255312 16.2934 0.247702 16.2401 0.260394L16.233 0.412696L16.2011 1.02447L16.1407 2.23786C16.1017 3.04002 16.0626 3.83456 16.0271 4.62148C16.0058 5.16218 15.9845 5.68002 15.9632 6.2131C12.9777 18.0449 7.19473 46.7525 6.19718 52.3752C5.07893 59.1199 4.45412 64.8289 4.45412 64.8289C1.25556 87.5964 1.04967 104.881 1.50052 123.242C2.01882 141.6 3.23647 161.032 3.63052 188.105C2.29216 235.686 -1.21169 248.307 0.428416 297.632C0.442616 301.787 0.453265 305.981 0.467465 310.218C0.552665 316.742 0.641413 323.331 0.730163 330C11.5328 329.845 22.3959 329.69 33.266 329.535C39.9471 329.403 46.6282 329.271 53.2809 329.139C65.1344 328.881 76.8672 328.622 88.2236 328.373C103.127 326.23 129.571 327.896 147.221 326.035L154.101 327.081C160.182 326.446 167.328 325.982 173.466 326.52L173.087 326.85C182.171 325.895 192.452 326.286 196.964 325.809L196.591 326.142L207.646 325.87L205.754 326.357C221.612 325.278 237.97 325.022 252.394 325.268L251.169 323.923C282.029 325.08 293.24 322.126 321.104 323.59L320.731 323.925C355.813 319.904 376.388 325.674 412.559 321.785C408.047 322.273 414.515 322.458 414.157 322.793C430.845 322.174 448.674 321.73 448.862 319.049C461.031 318.904 458.791 319.737 460.406 320.745C460.303 319.575 470.865 318.932 480.357 318.719L475.998 319.237L503.223 318.399L497.806 316.28C512.261 316.673 501.558 318.914 515.375 318.143L515.137 316.318C520.135 316.31 524.626 316.46 528.854 316.709C530.966 316.833 533.015 316.98 535.028 317.145C538.063 317.29 541.048 317.432 544.03 317.574C550.232 317.858 556.849 318.163 564.248 318.417L565.643 318.465L565.994 318.478L566.005 317.894C566.012 317.366 566.016 316.833 566.023 316.295C566.019 315.191 566.019 314.066 566.016 312.921C565.991 310.591 565.923 308.085 565.799 305.382C565.448 302.503 565.093 299.615 564.738 296.723L564.464 294.548C564.375 293.832 564.258 292.999 564.251 292.664L564.042 289.943C563.729 286.31 563.417 282.665 563.105 279.01C562.352 271.714 562.082 264.271 561.454 256.867C560.499 242.009 559.675 227.024 559.2 212.146C558.248 182.391 558.493 153.064 561.681 125.922L563.658 123.561C566.459 122.574 560.133 108.48 562.806 106.46L561.834 100.106C562.405 98.3418 563.101 94.6052 563.577 97.7706C563.949 91.9271 563.499 91.7722 562.863 87.5406L564.894 81.3112C566.087 70.1698 566.225 59.8104 566.282 49.329C566.328 44.0896 566.324 38.8197 566.47 33.4103C566.516 31.9735 566.566 30.5291 566.612 29.072C566.736 26.7671 566.86 24.4469 566.988 22.1039C567.318 17.4179 567.656 12.6456 568 7.7641C566.31 7.72603 564.514 7.68288 562.711 7.63718Z" fill="black"/>
</svg>
