<svg width="561" height="319" viewBox="0 0 561 319" fill="none" xmlns="http://www.w3.org/2000/svg">
<path d="M560.944 282.344C560.832 277.441 560.713 272.069 560.558 265.299C560.502 261.81 560.45 258.342 560.393 254.853C560.408 250.541 560.418 246.657 560.432 242.338C560.285 235.381 560.137 228.429 559.99 221.443C559.969 215.402 559.966 208.936 559.524 202.732C559.31 194.917 559.107 187.521 558.893 179.683C558.784 171.914 558.679 164.572 558.57 156.803C558.433 151.179 558.504 142.625 558.041 140.313C557.802 135.514 557.539 130.282 557.301 125.48C557.087 122.834 556.838 119.779 556.621 117.1C556 114.241 555.32 111.11 554.699 108.249C554.454 107.304 554.208 106.349 553.973 105.839C553.458 105.071 552.929 104.479 552.406 103.832C552.662 96.7963 552.89 90.0678 553.069 83.9381C553.637 72.7435 554.44 62.0912 555.218 50.7862C555.565 45.13 555.923 39.3192 556.298 33.1895C556.645 25.8499 557.006 18.1399 557.399 9.82614L557.532 8.06672L547.732 7.89493C543.027 7.73543 538.507 7.58085 534.089 7.43116C530.73 7.29375 527.445 7.16125 524.163 7.02629C518.083 6.91832 512.61 6.82015 506.519 6.71218C505.773 6.14779 498.35 6.16988 488.883 6.40054C473.61 6.17969 457.723 5.95149 442.495 5.73065C436.404 5.62268 430.325 5.51471 424.844 5.41901C397.485 4.88406 370.146 4.3491 342.822 3.81416C326.346 3.57368 309.849 3.33075 293.383 3.09027C292.314 2.9185 291.202 2.77617 290.708 2.61422C284.597 2.55778 279.078 2.50871 272.938 2.45227C267.472 2.35412 261.357 2.24613 255.284 2.13816C250.68 1.75045 245.8 1.66457 240.943 1.57869C238.247 1.83634 234.962 2.05473 231.676 2.30258C224.958 2.18479 217.683 2.05473 210.972 1.93694C201.291 1.71364 191.582 1.49033 181.901 1.26948C180.078 1.23758 178.244 1.20324 176.417 1.17134C169.756 1.00448 162.505 0.822877 155.86 0.656014C144.861 0.513689 134.451 0.37628 123.466 0.233955C111.933 -0.00161689 98.5255 -0.207756 99.8509 0.395897C102.649 0.751708 105.44 1.07564 107.603 1.41918C100.626 1.38728 97.9224 1.64493 98.0907 1.97866C95.2296 1.96884 92.3474 1.94185 89.4372 1.87805C84.6722 1.64002 88.0171 1.36518 87.0108 1.10016C76.3693 0.88177 66.6148 0.891597 57.0427 0.87442C52.2496 0.847427 47.5091 0.822894 42.7301 0.795902C40.3388 0.759094 37.937 0.719839 35.5107 0.680577C33.0002 0.614322 30.4686 0.548066 27.888 0.479357C19.522 0.476903 10.844 0.413102 1.76628 0.310039C2.02925 4.71965 2.29917 9.24704 2.57266 13.88C2.73044 17.1878 2.88828 20.5667 3.04957 24.0046C3.22488 29.2559 3.40365 34.6814 3.58598 40.1707C4.07685 41.6406 4.54328 43.0442 5.03416 44.5166C5.13934 47.1054 5.26204 50.1237 5.36372 52.6978C4.81675 54.1922 4.82371 57.581 4.48009 56.5994C4.65891 61.3305 4.83427 66.0738 5.03062 71.2319C5.02011 73.352 4.96754 75.747 4.92897 78.1862C4.91845 78.196 4.91135 78.2254 4.90083 78.2328C4.90784 78.2696 4.91843 78.3088 4.92544 78.3456C4.86934 81.7197 4.84826 85.1552 4.99553 88.1464C4.09091 93.0689 3.45628 95.0835 2.92684 100.229C3.11968 104.266 3.2635 107.387 3.79645 109.377C3.66672 112.82 4.3013 110.909 4.81672 109.814C5.05165 113.461 5.25503 116.604 5.51449 120.606C4.77817 125.097 4.43453 124.947 4.34687 132.341C5.37071 133.224 4.60635 148.561 5.25501 155.802C5.0832 163.996 4.0664 178.319 5.65124 178.989C4.99557 191.285 5.02364 206.031 5.65477 214.496C5.51803 220.067 5.09377 223.357 5.1113 228.545C5.23052 235.057 5.33913 241.145 5.44783 247.248C5.40926 253.542 5.52498 258.421 5.67575 262.759C5.49693 264.818 5.30061 266.857 5.07621 268.855C5.56709 275.637 5.19893 278.177 4.09445 278.984C3.90161 283.774 3.79287 286.51 3.69469 288.971C3.586 291.457 3.29851 293.658 2.61128 297.359C2.49207 298.443 2.35886 299.624 2.22211 300.873C2.02927 302.424 1.82589 304.063 1.61551 305.756C1.1632 309.152 0.679284 312.767 0.202431 316.344L0.0166734 317.689C0.0236859 317.736 -0.0289656 317.822 0.0236286 317.836L0.724927 317.851L1.65757 317.868C2.89528 317.893 4.12597 317.917 5.34265 317.942C7.7725 317.996 10.1428 318.047 12.4078 318.096C16.938 318.222 21.0437 318.337 24.3993 318.428C24.8726 318.332 25.7386 318.268 26.9202 318.229C27.8249 318.202 28.8697 318.17 30.0794 318.133C31.9938 318.087 34.4623 318.101 37.1551 318.143C42.5442 318.224 48.852 318.42 53.4452 318.425C56.9655 318.607 61.0189 318.818 64.5497 318.999C75.4963 319.024 67.0707 318.165 79.7213 318.337C84.6231 318.268 89.5564 318.197 94.4687 318.128C99.4862 317.91 105.563 317.898 120.482 318.222C124.146 318.187 128.406 318.148 132.067 318.116C141.758 318.128 151.421 318.141 161.109 318.153C163.602 318.065 165.443 318.001 167.322 317.935C191.652 317.76 215.944 317.586 240.249 317.412C245.751 317.346 251.827 317.27 257.917 317.196C265.898 317.032 274.891 317.098 281.213 316.742C287.987 316.555 295.368 316.352 302.17 316.165C307.545 316.244 313.643 316.16 319.13 316.087C325.347 315.854 331.56 315.62 337.152 315.412C348.092 315.301 358.411 315.196 369.343 315.083C383.94 314.924 398.512 314.764 413.126 314.605C414.413 314.423 415.205 314.31 416.503 314.126C425.289 314.425 442.365 314.173 448.915 313.491C453.817 313.365 458.729 313.243 463.676 313.115C477.07 312.909 490.489 312.703 504.503 312.487L560.702 311.567L560.853 299.7C560.905 296.169 560.951 292.822 561 289.472C560.982 287.136 560.965 284.8 560.944 282.344ZM339.298 10.8568C339.621 11.0433 338.969 11.2518 336.167 11.4923C312.226 10.6089 292.177 10.9279 269.225 10.3047C266.048 10.4028 262.949 10.496 260.337 10.577C260.074 10.8789 259.839 11.1488 259.576 11.4506C255.403 11.2862 247.041 10.9549 244.853 11.3426C239.418 11.188 235.207 11.0703 230.375 10.9328C227.125 10.6016 227.185 10.2654 222.784 9.92184C222.465 9.73535 223.125 9.52676 225.923 9.28628C249.891 10.1721 269.965 9.8556 292.942 10.4789C296.122 10.3832 299.225 10.2875 301.841 10.209C302.103 9.90713 302.338 9.6372 302.601 9.33537C306.777 9.49978 315.15 9.83352 317.342 9.44336C322.783 9.59795 326.998 9.71572 331.837 9.85314C335.059 10.1844 335.031 10.5181 339.298 10.8568ZM7.229 200.367L7.15538 206.485C7.18694 203.903 7.2115 201.883 7.23253 200.104C7.23253 200.19 7.23251 200.279 7.229 200.367Z" fill="#212123"/>
</svg>
