<svg width="160" height="130" viewBox="0 0 160 130" fill="none" xmlns="http://www.w3.org/2000/svg">
<path d="M6.63 29.973C6.592 29.521 6.545 29.09 6.466 28.697C6.486 29.956 6.551 30.113 6.63 29.973Z" fill="#212123"/>
<path d="M49.534 129.825C49.648 129.874 49.812 129.919 49.925 129.947C49.826 129.898 49.689 129.859 49.534 129.825Z" fill="#212123"/>
<path d="M72.455 126.549C72.241 126.564 72.028 126.578 71.81 126.593C72.029 126.594 72.276 126.596 72.43 126.597C72.455 126.58 72.446 126.567 72.455 126.549Z" fill="#212123"/>
<path d="M128.928 4.07797C129.026 4.13197 129.18 4.17897 129.39 4.19697C129.331 4.09197 129.163 4.06597 128.928 4.07797Z" fill="#212123"/>
<path d="M32.065 2.89598L31.973 2.87997C31.892 2.89597 31.792 2.90398 31.74 2.92398L32.065 2.89598Z" fill="#212123"/>
<path d="M157.144 108.743C157.157 108.759 157.172 108.775 157.189 108.804C157.171 108.762 157.157 108.763 157.144 108.743Z" fill="#212123"/>
<path d="M157.099 108.737C157.113 108.736 157.127 108.728 157.144 108.743C157.127 108.735 157.111 108.715 157.099 108.737Z" fill="#212123"/>
<path d="M157.189 108.804C157.246 108.919 157.307 109.084 157.388 109.357C157.302 109.056 157.241 108.897 157.189 108.804Z" fill="#212123"/>
<path d="M154.891 37.814C154.899 37.848 154.908 37.869 154.921 37.862C154.916 37.807 154.905 37.8 154.891 37.814Z" fill="#212123"/>
<path d="M118.988 5.08598L117.38 5.22498C117.699 5.19798 119.89 5.47398 118.988 5.08598Z" fill="#212123"/>
<path d="M131.418 3.75298C131.436 3.78098 131.479 3.81398 131.582 3.85498C131.537 3.82198 131.477 3.78698 131.418 3.75298Z" fill="#212123"/>
<path d="M132.513 3.38898C130.81 3.40498 131.111 3.57598 131.418 3.75298C131.241 3.47898 134.574 3.77398 132.513 3.38898Z" fill="#212123"/>
<path d="M154.119 18.672L154.182 17.886C154.351 18.7 154.337 18.317 154.205 17.591C154.227 16.756 154.095 16.797 154.01 16.693C153.965 16.524 153.92 16.355 153.872 16.172C153.917 16.431 153.957 16.665 153.992 16.863C153.932 18.157 153.918 18.947 154.119 18.672Z" fill="#212123"/>
<path d="M158.762 4.98798L158.745 3.96797L158.605 3.39398L157.295 3.61897L158.534 3.46098L158.762 4.98798Z" fill="#212123"/>
<path d="M156.108 50.041C156.091 50.324 156.072 50.651 156.047 51.057C156.059 50.69 156.08 50.353 156.108 50.041Z" fill="#212123"/>
<path d="M75.424 127.235L77.374 126.992L75.223 127.185L75.424 127.235Z" fill="#212123"/>
<path d="M59.759 126.931L59.966 126.985L61.906 126.744L61.701 126.691L59.759 126.931Z" fill="#212123"/>
<path d="M49.299 126.753C49.805 126.704 50.207 126.636 50.472 126.53C49.992 126.604 49.629 126.678 49.299 126.753Z" fill="#212123"/>
<path d="M45.78 129.993C46.839 130.019 47.163 129.979 47.811 129.898C47.631 129.609 46.635 129.967 45.78 129.993Z" fill="#212123"/>
<path d="M144.018 1.00298L142.017 1.73097L138.633 1.63098C138.6 1.86798 136.141 2.11397 137.813 2.28297C138.138 2.23897 138.781 2.15397 139.302 2.16397C138.936 2.68197 134.812 2.51997 135.817 3.01297C138.488 2.81797 138.901 2.91998 140.537 2.46898C141.763 2.46498 142.823 2.48198 143.72 2.52098C144.173 2.54798 144.585 2.57198 144.957 2.59398C145.422 2.62098 145.83 2.65398 146.182 2.69298C147.099 2.59498 147.299 2.27797 148.536 2.18797C148.266 2.19997 148.018 2.21198 147.707 2.22598L147.774 1.45798C147.209 1.55198 146.684 1.58498 146.145 1.59998C145.644 1.60998 145.129 1.61997 144.573 1.63197C144.838 1.55097 145.403 1.46398 145.854 1.37898L147.314 1.12198L150.415 0.603973C149.618 0.262973 147.576 0.234971 145.482 0.260971C144.738 0.269971 143.985 0.279979 143.309 0.287979C142.706 0.287979 142.171 0.270971 141.781 0.204971C143.721 0.806971 140.252 0.560975 144.018 1.00298Z" fill="#212123"/>
<path d="M45.286 125.452L44.426 125.685C44.382 125.649 44.4 125.622 44.4 125.604C44.663 125.559 44.944 125.505 45.26 125.451C45.277 125.452 45.277 125.452 45.286 125.452Z" fill="#212123"/>
<path d="M18.652 127.761L22.884 127.404C22.316 127.606 24.355 127.589 23.459 127.82C23.782 127.793 25.292 127.743 24.883 127.623L24.021 127.616C26.26 127.038 24.92 126.772 28.616 126.37C26.336 125.951 25.324 126.266 24.105 126.524C23.693 126.558 23.347 126.569 22.999 126.585L19.469 127.381L18.652 127.761Z" fill="#212123"/>
<path d="M156.186 88.779L156.234 88.826C156.217 88.783 156.201 88.776 156.186 88.779Z" fill="#212123"/>
<path d="M156.432 89.015L156.235 88.827C156.333 89.058 156.431 89.945 156.432 89.015Z" fill="#212123"/>
<path d="M116.82 1.71698C117.014 1.73298 117.236 1.75098 117.412 1.76498C117.282 1.73298 117.058 1.72298 116.82 1.71698Z" fill="#212123"/>
<path d="M5.177 71.72L5.189 70.571C5.171 71.02 5.172 71.387 5.177 71.72Z" fill="#212123"/>
<path d="M2.201 46.001L1.982 44.33C2.011 44.992 2.094 45.508 2.201 46.001Z" fill="#212123"/>
<path d="M103.387 1.96898L103.332 1.96498C103.24 1.98098 103.17 1.99397 103.073 2.01097L103.387 1.96898Z" fill="#212123"/>
<path d="M20.175 2.87898C20.427 2.93798 20.71 2.98997 21.096 3.02597C21.048 2.95097 20.704 2.90498 20.175 2.87898Z" fill="#212123"/>
<path d="M2.242 46.309C2.247 46.266 2.249 46.241 2.253 46.207C2.237 46.142 2.219 46.071 2.201 46.001L2.242 46.309Z" fill="#212123"/>
<path d="M3.051 83.064C3.075 83.31 3.096 83.532 3.122 83.796C3.109 83.451 3.082 83.239 3.051 83.064Z" fill="#212123"/>
<path d="M5.167 81.451C5.185 81.715 5.207 81.968 5.238 82.164L5.167 81.451Z" fill="#212123"/>
<path d="M2.924 125.704L5.611 125.697C4.333 125.661 3.536 125.673 2.924 125.704Z" fill="#212123"/>
<path d="M4.663 85.535C4.697 85.625 4.729 85.715 4.763 85.775C4.741 85.562 4.698 85.46 4.663 85.535Z" fill="#212123"/>
<path d="M130.17 2.57597C130.604 2.54597 131.056 2.51397 131.501 2.48297C131.006 2.48897 130.524 2.52397 130.17 2.57597Z" fill="#212123"/>
<path d="M133.725 1.88597C133.901 1.31797 136.845 1.55398 138.142 1.38498C137.195 1.27398 138.603 1.01198 138.313 0.815979C137.67 0.898979 136.908 1.07897 135.842 1.06297C135.347 0.815973 136.959 0.603982 138.223 0.671982C136.662 0.408982 140.186 0.179977 137.981 0.000976562C133.281 0.306977 129.962 0.586977 126.672 1.48598C129.35 1.28998 132.346 1.05297 134.55 1.23097L133.636 1.74098C131.141 1.36798 129.614 1.72297 127.168 1.73297L132.665 1.86798C135.246 2.21598 133.527 2.34897 131.501 2.48297C132 2.47797 132.452 2.49698 132.58 2.58098C132.815 2.39398 138.6 1.86797 133.725 1.88597Z" fill="#212123"/>
<path d="M125.649 4.65797H125.645C125.603 4.66397 125.612 4.66397 125.649 4.65797Z" fill="#212123"/>
<path d="M2.622 105.608C2.64 105.862 2.666 105.741 2.689 105.531C2.667 105.553 2.646 105.558 2.622 105.608Z" fill="#212123"/>
<path d="M38.191 1.52098C38.598 1.52398 39.038 1.51298 39.519 1.46498C38.961 1.47098 38.543 1.49198 38.191 1.52098Z" fill="#212123"/>
<path d="M4.016 45.871C4.045 43.17 3.67 42.156 3.444 41.047C3.538 41.171 3.585 40.96 3.68 40.539C3.506 38.14 2.953 36.893 2.667 38.143L2.85 38.933L2.468 40.61C3.336 41.214 3.003 46.129 3.443 48.805C3.02 46.969 2.205 45.406 2.645 43.01L2.223 43.28C2.095 41.218 2.475 39.532 2.016 38.402L2.191 40.802L1.958 40.768C2.044 42.47 2.473 44.628 2.255 46.207C2.579 47.58 3.069 48.866 3.067 52.563L2.973 52.443C3.82 54.927 2.633 59.43 3.023 61.313C3.843 62.391 3.272 57.245 3.572 55.986C3.92 57.538 3.521 59.216 3.961 57.867C4.413 61.499 3.33 60.055 3.92 63.049L4.094 61.342C4.489 62.685 4.294 64.936 4.683 66.291C5.236 66.471 4.644 64.006 4.789 61.426L5.232 62.572L4.667 57.417C3.945 55.912 3.971 57.326 3.416 54.122C3.69 52.976 4.104 52.165 4.515 51.983C4.061 50.841 3.812 47.795 3.752 44.439L4.016 45.871Z" fill="#212123"/>
<path d="M130.371 4.11697C130.486 4.03497 130.43 3.91498 130.974 3.86398L128.909 3.99597L130.371 4.11697Z" fill="#212123"/>
<path d="M89.024 0.736976C88.843 0.448976 87.638 0.762991 86.99 0.848991C87.519 0.855991 88.26 0.915976 89.024 0.736976Z" fill="#212123"/>
<path d="M158.975 67.752C159.002 68.756 159.03 69.786 159.059 70.873L158.975 67.752Z" fill="#212123"/>
<path d="M159.211 76.546C159.237 77.517 159.264 78.541 159.294 79.644L159.211 76.546Z" fill="#212123"/>
<path d="M23.535 2.16197L21.535 2.03297L23.097 2.29597L23.535 2.16197Z" fill="#212123"/>
<path d="M5.775 2.71997L8.948 2.43698L8.594 2.39098L5.402 2.67398L5.775 2.71997Z" fill="#212123"/>
<path d="M7.38 9.07397C7.392 9.32597 7.421 9.60598 7.48 9.89398C7.44 9.57098 7.407 9.29997 7.38 9.07397Z" fill="#212123"/>
<path d="M7.912 18.623L7.907 17.833C8.145 18.629 8.099 18.249 7.904 17.537C7.854 16.702 7.725 16.755 7.632 16.66C7.573 16.496 7.514 16.332 7.449 16.154C7.516 16.408 7.577 16.638 7.628 16.832C7.681 18.127 7.735 18.915 7.912 18.623Z" fill="#212123"/>
<path d="M2.649 52.297C2.676 49.54 2.136 49.982 1.963 48.325C2.108 51.439 1.986 52.08 2.178 55.803C2.269 52.9 2.326 52.148 2.649 52.297Z" fill="#212123"/>
<path d="M1.962 48.325C1.944 47.976 1.927 47.643 1.907 47.238C1.91 47.691 1.932 48.027 1.962 48.325Z" fill="#212123"/>
<path d="M2.108 60.109C2.117 59.571 2.084 58.71 2.185 58.284C1.86 58.137 2.1 60.646 2.108 60.109Z" fill="#212123"/>
<path d="M3.563 68.404C3.576 67.866 3.779 67.036 4.05 67.39C3.881 66.611 3.301 65.562 3.563 68.404Z" fill="#212123"/>
<path d="M2.233 100.05L2.056 98.617L1.927 100.396C2.031 99.889 2.418 100.825 2.233 100.05Z" fill="#212123"/>
<path d="M1.927 100.396C1.91 100.471 1.901 100.581 1.903 100.74L1.927 100.396Z" fill="#212123"/>
<path d="M2.625 110.111L2.666 107.768L2.557 110.321L2.625 110.111Z" fill="#212123"/>
<path d="M2.213 127.094L2.888 127.23L6.751 127.168L6.046 127.031L2.213 127.094Z" fill="#212123"/>
<path d="M96.011 126.9L96.602 126.846C96.352 126.856 96.169 126.876 96.011 126.9Z" fill="#212123"/>
<path d="M158.195 124.617L158.107 124.294C158.089 124.411 158.098 124.545 158.054 124.644L157.58 124.599C157.536 124.59 157.501 124.59 157.457 124.59C157.299 122.956 157.15 121.178 157.001 119.436C156.94 118.772 156.887 118.107 156.825 117.442C156.834 116.275 156.834 115.143 156.781 113.733C156.772 113.383 156.763 113.015 156.746 112.62C156.737 112.369 156.728 112.108 156.72 111.83C156.702 111.417 156.659 110.959 156.615 110.474C156.615 110.411 156.624 110.357 156.624 110.294C156.668 110.59 156.703 110.932 156.729 111.336C156.773 112.009 156.817 112.773 156.869 113.599C157.045 115.79 157.282 118.17 157.668 120.442C157.905 118.071 156.957 114.578 156.895 112.396C156.965 112.656 157.053 113.285 157.123 113.581C157.202 113.895 157.272 114.075 157.325 114.102C157.378 114.129 157.413 113.994 157.43 113.68C157.439 113.518 157.448 113.303 157.465 113.042C157.465 112.916 157.474 112.782 157.474 112.629C157.483 112.539 157.492 112.44 157.5 112.342L157.158 111.678C157.105 110.672 156.956 108.885 157.097 108.742C156.983 108.697 156.93 109.146 156.886 110.062C156.798 109.676 156.71 109.236 156.631 108.76C156.631 107.961 156.622 107.162 156.631 106.353C156.649 106.739 156.666 107.116 156.692 107.493C157.096 106.685 156.622 106.64 156.674 104.826L157.192 106.802C157.192 105.967 157.043 105.239 156.885 104.79C156.92 104 156.911 103.039 156.885 101.997C156.911 101.853 156.938 101.665 156.964 101.431C156.938 101.18 156.903 100.946 156.867 100.704C156.841 99.689 156.832 98.621 156.876 97.579L157.271 96.977C157.148 95.109 157.087 91.625 157.087 88.778C156.859 88.751 156.911 91.373 156.622 90.134C156.622 91.553 156.675 92.747 156.92 92.244C156.92 92.603 156.902 92.873 156.859 93.097L156.113 89.128C156.131 88.895 156.157 88.796 156.183 88.778L156.104 88.706C156.165 86.865 156.174 84.845 156.043 83.094C156.069 83.651 156.069 84.297 156.043 85.052C155.683 83.678 155.701 82.403 155.797 81.065C155.92 81.721 155.999 82.448 156.034 83.489V82.968L156.016 80.256C156.437 81.944 156.358 88.356 156.999 87.251C156.788 84.09 156.481 79.816 156.095 76.385L156.235 77.391C156.411 74.491 156.174 72.183 155.972 69.866L156.428 69.938C156.059 69.758 155.884 67.98 155.77 66.31C155.77 66.166 155.77 66.014 155.779 65.87C155.858 65.538 155.955 64.891 156.086 64.891C156.13 65.241 156.174 65.511 156.235 65.69L156.244 65.932V65.716C156.297 65.887 156.367 65.967 156.455 65.923C156.595 64.1 156.473 61.909 156.244 61.002L156.156 61.729C156.086 60.104 155.972 58.478 155.831 56.925C155.936 56.53 156.042 55.713 156.138 54.114C156.278 54.913 156.208 56.853 156.559 56.485L156.34 60.248L156.796 60.329C156.928 56.064 156.498 53.37 155.909 51.268C155.927 49.634 155.865 49.032 155.777 48.87C155.961 48.61 156.181 48.232 156.102 50.037C156.295 47.9 156.804 46.858 156.954 47.083C156.629 44.838 155.936 50.603 155.716 46.742C155.567 48.125 155.54 48.709 155.584 48.906C155.4 49.122 155.171 49.535 155.013 48.125C155.812 45.629 156.163 38.903 157.094 40.779C157.507 38.13 157.155 29.886 157.331 24.112L157.577 25.692C158.788 19.702 157.015 20.34 156.884 16.811C157.007 18.365 157.156 17.682 157.323 16.461C157.358 16.129 157.402 15.77 157.446 15.392C157.507 14.871 157.56 14.332 157.613 13.829C157.718 12.805 157.824 11.871 157.929 11.369C157.824 8.88197 157.622 6.78897 157.543 4.40097C156.665 4.44597 155.779 4.47298 154.848 4.49098C154.83 4.03298 154.822 3.62898 154.813 3.35098C154.901 3.44098 155.024 3.24298 155.12 4.25798C155.059 3.26998 154.997 2.50698 154.936 1.90498C154.892 1.59098 154.857 1.31197 154.831 1.07897L154.822 0.988978C154.787 0.988978 154.761 0.997965 154.725 0.997965C154.664 1.00697 154.611 1.00697 154.549 1.01597C154.435 1.03397 154.33 1.04297 154.233 1.05197C153.443 1.15997 153.118 1.29397 152.828 1.43797C152.266 1.71597 151.827 2.02198 148.658 2.18298C149.062 2.15598 149.545 2.15597 150.194 2.19197C151.765 2.11097 152.871 2.36298 152.204 2.50598C152.968 2.46098 153.837 2.11997 153.661 2.80197C153.705 3.24197 153.74 3.53796 153.766 3.76296C153.827 4.19396 153.898 4.25697 154.214 4.21197C154.232 4.30197 154.258 4.39197 154.275 4.48997C153.476 4.49897 152.66 4.48998 151.782 4.46298C150.869 3.97798 151.001 3.21497 147.068 3.07997C146.963 3.09797 146.822 3.11596 146.752 3.12496L146.541 3.16998L146.128 3.26898L145.303 3.45797C142.863 3.34997 139.615 3.62897 138.061 3.29597L138.395 3.26898C135.674 2.96398 135.551 3.66398 137.666 3.79898L135.068 4.02397L134.989 3.87097C131.539 4.08597 128.335 4.75097 122.892 4.75097C123.226 4.65197 123.182 4.54398 122.989 4.43698C123.454 4.37398 123.92 4.32897 124.42 4.31097C124.569 4.35597 124.692 4.39198 124.745 4.43698C125.14 4.46398 125.526 4.46398 125.904 4.44598L125.649 4.65296C125.798 4.63496 126.536 4.51797 126.948 4.35697C127.791 4.24897 128.484 4.09697 128.923 4.07897C128.721 3.97997 128.668 3.84597 128.704 3.69297C129.556 3.59397 130.644 3.52198 130.372 3.27098C130.372 3.45098 129.503 3.48697 128.783 3.52197C128.88 3.37797 129.046 3.23497 129.275 3.09997C130.153 3.13597 131.031 3.17197 131.891 2.90197L129.81 2.63298C129.845 2.62398 129.907 2.61496 129.986 2.59696C129.126 2.65996 128.406 2.73197 128.204 2.83897C125.088 3.17097 123.464 2.52498 122.954 2.28198C121.488 2.16498 123.472 1.67097 123.288 1.38397C120.935 1.53697 121.085 2.05697 118.732 2.20997C118.117 2.16497 118.328 2.06597 118.6 2.00297L117.037 2.28097C116.94 2.13697 112.911 2.11898 115.29 1.72398C115.65 1.72398 116.308 1.71498 116.817 1.71498C113.525 1.44598 107.837 1.19398 108.003 0.654978C106.203 0.582978 106.713 0.825972 103.851 0.735972C102.745 1.07697 103.579 1.38298 102.016 1.66998L101.419 1.61598L100.532 1.84898L101.024 1.83998L103.324 1.95697C103.833 1.87597 104.255 1.77697 104.799 1.70597L103.122 1.76898L102.709 1.73297C103.789 1.54397 103.613 1.35597 104.035 1.02397C107.968 0.897966 109.065 1.53597 111.067 1.66197C109.847 1.97597 107.74 1.93997 108.539 2.37997C106.555 2.02097 106.362 2.81997 104.062 2.49697L104.501 2.36196C102.657 2.76596 102.385 2.33498 100.867 2.68498C100.981 2.59498 100.77 2.54096 100.577 2.48696C97.241 2.77396 101.587 2.74697 98.259 3.26797C98.101 3.26797 97.961 3.25897 97.829 3.25897L96.802 3.10597L97.785 3.01597L96.565 2.81797C96.618 2.61997 96.828 2.42297 96.451 2.33297C96.864 2.26997 97.206 2.21597 97.496 2.16197C97.812 2.18897 97.979 2.26997 97.715 2.31497C98.847 2.17997 98.567 2.11697 97.996 2.06397C98.628 1.91997 98.83 1.81297 98.891 1.72297H99.277C99.145 1.71397 99.031 1.70498 98.908 1.69598C99.005 1.47098 98.53 1.30997 101.708 0.941966C101.673 0.321966 99.557 0.285972 96.687 0.429972C98.372 0.627972 96.099 1.21997 97.416 1.60597C95.616 1.57897 94.361 1.78597 93.079 1.57897C94.001 1.55197 94.958 1.54297 95.8 1.56097C96.397 1.09397 93.509 1.23797 91.832 1.06697C88.689 1.63297 85.397 0.815965 82.983 1.44396C82.851 1.45296 82.746 1.45297 82.632 1.45297C81.956 1.41697 81.438 1.33597 82.017 1.12997C82.307 1.04897 82.579 0.976964 82.509 0.958964C80.797 0.877964 80.586 1.02198 80.569 1.17398C79.322 1.14698 77.909 1.01197 77.584 1.25497C78.023 1.13797 79.401 1.17398 80.34 1.32698C79.603 1.38998 79.225 1.51598 78.751 1.60498C78.163 1.63198 77.654 1.63198 77.197 1.61398C77.144 1.55998 77.215 1.51498 77.215 1.51498C77.039 1.53298 76.899 1.55997 76.767 1.58697C75.345 1.49697 74.432 1.23697 73.01 1.15597C73.001 1.13797 72.966 1.11997 72.905 1.11097C72.887 1.11997 72.861 1.12896 72.826 1.13796C72.51 1.12896 72.168 1.11997 71.781 1.11997C71.412 1.20997 70.965 1.29098 70.455 1.35298C69.086 1.38898 67.47 1.35297 66.487 1.19097L66.935 1.07397C65.969 1.15497 64.538 1.35196 63.52 1.05596C63.178 1.29796 62.669 1.54097 62.168 1.74697C60.614 1.77397 59.069 1.78297 57.708 1.80097C58.27 1.56797 57.647 1.41497 57.357 1.21697C57.059 1.31597 56.804 1.40597 56.584 1.47697C56.031 1.36897 55.39 1.43198 54.67 1.65698L55.205 1.68397C54.292 1.82797 51.378 2.14197 52.229 2.35697C52.185 2.36597 52.159 2.36596 52.124 2.37496L52.501 2.40197C52.685 2.42897 52.922 2.45598 53.256 2.47398C50.859 2.76098 50.131 2.04297 48.498 2.17797C48.34 1.88197 49.841 1.83697 49.025 1.59397C47.436 1.49497 46.391 1.43197 45.083 1.53997C46.347 1.66597 44.723 1.80897 46.707 2.02497C45.943 2.16897 43.915 2.18697 43.994 2.32997C44.644 2.27597 45.091 2.15896 46.224 2.37496C44.328 2.46496 42.361 2.43797 40.421 2.23997C40.886 2.08697 40.878 1.93498 42.423 1.93498L41.826 1.66596C41.931 1.63896 41.958 1.61197 41.879 1.58497C41.835 1.60297 41.782 1.61197 41.739 1.62997L41.221 1.38796C41.563 1.66596 40.729 1.84598 39.931 2.01698C38.957 2.15198 37.85 2.21497 36.736 2.25897C36.824 1.97197 36.604 1.63897 38.184 1.51397C36.472 1.49597 35.191 1.17297 33.365 1.40597C32.654 1.43297 30.117 1.70196 28.291 1.97196L27.834 2.00798L27.895 2.03497C27.807 2.04397 27.719 2.06197 27.64 2.07997C27.737 2.06197 27.833 2.05297 27.93 2.04397L28.027 2.07098L29.607 1.93597C30.722 1.94497 31.652 2.11597 32.846 2.25897C31.248 2.23197 31.002 2.65397 29.633 2.43897L30.072 2.30397L28.343 2.60897C28.308 2.54597 28.176 2.50098 28.001 2.47398C28.124 2.41998 28.229 2.35697 28.317 2.27597C27.351 2.23097 26.579 2.25798 25.894 2.32098C25.271 2.28498 25.069 2.21297 26.21 1.96197C23.849 2.11497 25.402 2.37496 23.26 2.58196L23.997 2.59097C23.058 2.75297 22.136 2.91397 20.854 2.91397C21.398 3.07597 22.583 3.22797 23.848 3.31797L23.971 3.73097L20.942 3.35397C21.32 3.68597 18.993 3.60497 18.352 3.68597C16.675 3.51497 17.737 2.67997 14.911 3.20097L15.122 3.25497C14.911 3.28197 14.727 3.30898 14.534 3.33598C14.332 3.35398 14.227 3.38097 13.902 3.39897C13.358 3.44397 12.822 3.47997 12.26 3.50697C11.128 3.56997 9.863 3.58797 8.02 3.56097C8.16 3.47097 9.135 3.37197 9.626 3.32797C7.493 3.27397 4.886 3.39098 2.471 3.51698C2.62 5.44798 2.752 7.28896 2.813 8.80596C2.866 10.306 2.831 11.473 2.637 12.138C2.198 11.599 2.339 9.43498 1.856 9.10298C1.935 5.84298 1.786 4.19998 1.566 2.65498C2.497 2.51098 3.26 2.34097 4.603 2.19697C5.946 2.06197 7.921 1.96398 11.117 2.00798C11.31 2.26798 11.916 2.34897 12.767 2.33097C13.18 2.33097 13.715 2.29497 14.172 2.25897C14.479 2.22297 14.813 2.17798 15.146 2.13298C16.498 1.94398 17.946 1.75597 18.526 2.26797C17.367 2.22297 16.015 2.37597 15.015 2.55497C14.497 2.64497 14.172 2.74397 13.637 2.83297C13.207 2.91397 13.022 2.97698 13.189 3.00398C13.839 2.97698 14.55 2.94997 15.278 2.91397C15.884 2.89597 16.498 2.87796 17.104 2.85996C18.298 2.83296 19.422 2.83297 20.168 2.86897C18.851 2.55497 19.255 1.96197 20.203 1.57597C19.404 1.66597 18.456 1.70198 17.403 1.70198C16.876 1.70198 16.332 1.69297 15.761 1.68397C15.173 1.67497 14.558 1.65697 13.926 1.63897C9.651 1.60297 4.823 1.52197 0.390001 1.53997C0.416001 2.26697 0.443 2.94997 0.469 3.63197C0.671 3.45197 0.864 3.29997 1.066 3.15597C1.496 7.15197 1.329 6.79297 1.092 6.22697C0.864001 5.64297 0.548 4.74498 0.688 7.87898L1.285 10.726L1.25 11.085L2.014 15.413C1.847 12.486 1.452 13.743 1.558 10.51C1.628 7.68097 2.041 10.851 2.436 11.695C2.41 12.153 2.418 12.916 2.436 13.751C2.454 14.164 2.462 14.595 2.471 15.008C2.48 15.215 2.48 15.412 2.489 15.61V15.969C2.48 16.831 2.428 17.226 2.164 15.96L2.98 20.468C2.743 20.45 2.603 19.462 2.462 19.004L2.708 22.282L2.611 22.165C2.997 24.796 3.146 28.478 3.656 30.48C3.937 25.972 4.253 32.608 4.578 32.204C4.578 33.829 3.507 34.359 2.954 30.947C3.279 30.013 2.726 27.678 2.629 25.945C2.497 28.19 2.813 28.872 2.91 30.624C2.585 29.394 2.629 32.959 2.392 32.932C2.208 32.707 1.646 31.989 1.795 29.735C1.698 26.386 2.348 29.367 2.208 28.379C2.77 27.463 1.918 23.709 2.006 21.671C2.05 21.455 2.146 22.111 2.199 22.443C2.102 20.692 1.936 17.019 1.514 16.768L2.006 21.123C1.918 22.084 1.576 19.794 1.4 21.168C1.54 22.156 1.637 23.35 1.602 24.643L1.409 24.41C1.19 27.077 1.462 31.217 1.743 34.261C2.674 34.908 3.271 36.488 4.289 37.79C4.465 42.352 4.552 47.12 4.5 51.969C4.693 51.888 4.886 51.933 5.062 52.158C4.86 53.532 5.097 56.055 4.632 55.992C5.115 57.456 5.563 61.631 5.993 60.823C6.011 60.994 6.028 61.2 6.037 61.38C5.572 63.149 5.212 65.798 5.177 70.557C5.186 71.491 5.493 71.626 5.932 71.41C5.879 71.778 5.844 72.137 5.8 72.497C5.791 72.021 5.782 71.635 5.739 71.815C5.695 72.641 5.678 73.395 5.686 74.114C5.686 74.177 5.677 74.249 5.677 74.312C5.466 73.585 5.203 73.109 5.168 71.708L5.063 79.107L4.844 78.532L5.16 81.442C5.046 79.799 5.142 77.257 5.617 77.877C5.942 80.795 5.582 82.6 5.889 84.908C5.854 85.195 5.828 85.546 5.792 85.896C5.186 86.04 5.028 86.686 4.607 85.86C4.625 85.671 4.633 85.582 4.66 85.528C4.204 84.477 3.729 82.241 3.624 80.508C3.317 86.623 3.633 85.052 3.387 90.413C2.922 90.88 2.904 85.474 2.571 86.722L2.826 81.684C2.861 82.537 2.966 82.645 3.045 83.058C2.72 79.583 3.124 78.317 2.562 75.712C2.773 74.051 2.948 78.28 3.018 76.466C3.115 78.002 3.668 79.51 4.045 80.256C4.221 76.278 3.422 77.993 3.202 74.617L3.606 72.085C3.509 70.558 3.351 72.588 3.211 72.678C3.088 70.819 3.378 70.11 3.36 68.7C3.255 69.113 3.141 70.065 2.965 69.831C3.29 67.541 3.035 65.305 3.632 63.168C3.316 64.03 2.816 61.561 2.693 60.609L2.096 65.072C2.403 70.729 2.096 74.24 2.465 80.338L2.193 79.979C1.333 89.552 3.483 87.944 3.352 96.134C2.702 96.35 3.37 99.923 2.72 99.591C2.852 97.139 2.562 97.624 2.255 98.316C2.431 99.753 2.878 100.696 2.536 103.435C2.238 102.411 1.878 104.809 1.843 102.115C1.703 103.974 1.641 105.411 1.659 106.623C1.659 107.826 1.764 108.805 1.993 109.766C2.019 110.52 2.028 111.113 2.019 111.589C2.01 111.831 2.001 112.029 2.001 112.218C1.975 112.451 1.966 112.649 1.948 112.82C1.851 113.951 1.693 114.32 1.553 114.787C1.272 115.64 0.947001 116.61 0.596001 122.393L0.491001 120.804L0 127.216C0.272 127.261 0.606001 127.243 0.904001 127.252L0.395 127.153C0.316 127.135 0.219 127.126 0.149 127.099L0.219 126.758L0.506001 125.425L0.462 126.44L0.453001 126.691V126.817C0.453001 126.862 0.532001 126.835 0.567001 126.835H1.111L7.502 126.781C10.092 126.691 9.6 126.566 8.634 126.44C7.651 126.305 6.185 126.171 6.58 126.045L4.605 126.458C3.815 126.404 2.928 126.368 2.015 126.359L1.33 126.341C1.225 126.341 1.093 126.35 0.996 126.332L1.022 126.009C1.04 125.569 1.066 125.147 1.092 124.743C1.189 123.118 1.294 121.771 1.496 121.331C1.303 123.989 1.329 124.905 1.417 125.39C1.435 125.507 1.461 125.605 1.487 125.695C1.513 125.776 1.478 125.911 1.698 125.83C2.014 125.776 2.374 125.731 2.918 125.704C2.523 125.695 2.067 125.731 1.698 125.686L1.759 124.51L1.873 122.13L2.391 120.316C2.61 117.927 2.83 115.835 2.962 113.958C3.006 113.527 3.015 112.934 3.023 112.575C3.023 112.324 3.014 112.072 3.005 111.839C2.987 111.363 2.944 110.914 2.865 110.492C2.742 111.058 2.804 111.534 2.847 111.983C2.873 112.225 2.9 112.405 2.891 112.701C2.873 113.123 2.838 113.581 2.724 114.021C2.68 113.734 2.636 113.357 2.601 112.908L2.575 112.585C2.566 112.522 2.557 112.459 2.549 112.396C2.531 112.261 2.514 112.127 2.496 111.983C2.435 111.417 2.408 110.753 2.391 110.034C2.347 108.588 2.426 106.927 2.365 105.239C2.514 105.158 2.593 104.099 2.699 104.548C2.752 104.62 2.725 105.212 2.69 105.536C2.962 105.294 3.067 107.17 3.34 104.027C3.735 105.176 4.332 107.565 4.472 107.493C4.472 108.409 4.446 109.513 4.393 110.564C4.367 111.094 4.323 111.615 4.288 112.091C4.262 112.333 4.235 112.576 4.209 112.791C4.174 113.141 4.148 113.491 4.104 113.77L4.025 113.59C3.893 114.856 3.806 116.787 3.709 118.439C3.604 120.091 3.481 121.483 3.235 121.86C3.217 122.228 3.209 122.749 3.191 123.27C3.182 123.53 3.173 123.782 3.173 124.015C3.173 124.123 3.164 124.239 3.164 124.338C3.138 124.41 3.243 124.365 3.278 124.374C3.331 124.374 3.383 124.365 3.436 124.365C3.822 124.338 4.024 124.302 3.901 124.248C3.831 124.221 3.69 124.194 3.436 124.158C3.445 123.889 3.541 123.44 3.612 122.901L3.568 123.727L3.559 123.934C3.559 123.961 3.55 124.006 3.559 124.033H9.221C8.44 124.392 9.616 124.68 10.178 124.913C10.705 125.146 10.643 125.353 6.719 125.524H14.119C14.049 125.551 14.005 125.578 13.917 125.596C13.654 125.623 13.443 125.659 13.32 125.722C12.433 125.677 11.88 125.695 11.784 125.542C10.397 125.767 10.608 125.955 11.775 126.108C12.354 126.18 13.162 126.243 14.092 126.297C14.742 126.333 15.461 126.369 16.199 126.414L16.796 125.983C18.912 126.297 20.167 126.71 22.994 126.585L29.631 125.085C30.272 125.067 30.921 125.04 31.571 125.022C32.422 125.3 35.328 125.166 34.178 125.651C34.468 125.867 33.493 125.947 32.229 125.822C32.036 125.768 32.352 125.741 32.15 125.678C31.781 125.938 31.623 126.262 33.16 126.594C31.589 126.504 31.378 126.441 30.281 126.612L31.87 126.711C29.509 126.756 25.901 127.313 25.936 127.69C26.673 127.169 28.175 127.726 29.439 127.852C28.465 127.942 26.393 128.193 27.973 128.292C28.544 128.085 32.854 127.87 29.808 127.592C31.098 127.475 32.845 127.242 34.311 127.43C32.582 127.654 33.714 127.87 33.222 128.22C34.767 127.933 34.723 127.547 34.969 127.376C35.627 127.457 36.216 127.547 36.777 127.645C36.04 128.202 36.812 128.857 36.812 129.549C37.102 129.747 41.991 129.765 42.167 129.199C39.867 128.858 45.31 128.651 41.07 128.552C41.035 128.516 41.026 128.48 41.035 128.435C42.44 128.65 43.967 128.758 46.074 128.642C46.724 128.579 43.072 128.75 43.546 128.4C43.616 128.391 43.686 128.382 43.757 128.373C43.81 128.391 43.88 128.409 43.968 128.436C44.161 128.373 44.337 128.328 44.503 128.292C45.706 128.202 46.61 128.337 47.461 128.499C46.276 128.679 46.092 128.903 44.924 129.172C44.661 129.765 48.111 129.513 49.533 129.828C49.436 129.783 49.375 129.738 49.428 129.702L51.746 129.801C49.543 129.603 52.044 129.145 53.221 129.074C54.081 129.047 55.776 128.984 55.547 129.173L54.257 129.335C55.925 129.515 57.926 128.796 59.691 129.128C59.788 129.272 59.12 129.352 59.024 129.442C60.99 128.966 62.895 128.957 65.81 128.598L64.125 129.271C65.802 128.723 69.032 128.633 72.078 128.75C72.183 128.858 72.534 128.966 73.43 129.046C73.527 128.974 73.746 128.911 74.018 128.848C74.431 128.875 74.826 128.902 75.212 128.938C75.23 128.938 75.238 128.947 75.256 128.956C76.195 128.902 77.029 128.965 77.793 129.055C77.758 129.118 77.679 129.172 77.512 129.235C77.714 129.181 77.977 129.136 78.249 129.109C79.048 129.208 79.768 129.324 80.426 129.342C80.207 129.198 80.198 129.1 80.312 129.028C82.612 129.055 85.535 129.261 87.563 128.965L88.889 128.929L89.635 128.938C89.775 129.028 89.6 129.136 88.617 129.279C89.749 129.162 92.55 129.243 92.278 128.983L99.547 129.082C99.775 129.127 100.003 129.172 100.17 129.235C100.416 129.19 100.46 129.145 100.425 129.1L132.107 129.54C130.544 129.45 129.201 129.226 127.586 129.109C130.018 128.57 124.944 128.965 125.663 128.436C126.752 128.256 128.34 128.337 129.289 128.49C129.649 128.221 128.297 127.96 128.464 127.628C124.47 127.224 123.838 128.526 119.94 128.266C120.098 127.943 121.309 127.673 118.755 127.673L119.036 127.646C117.939 127.709 117.245 127.655 116.736 127.592C121.345 127.502 123.645 127.646 129.324 127.341L130.035 126.784L130.246 126.613C130.255 126.622 130.264 126.631 130.272 126.631C130.219 126.676 130.149 126.721 130.035 126.784C130.167 126.784 130.272 126.775 130.395 126.766C130.404 126.793 130.404 126.811 130.404 126.829C133.775 127.062 137.638 126.937 140.473 126.515C136.821 126.704 141.72 126.012 138.112 125.958C138.727 125.859 139.736 125.796 140.886 125.76C140.684 125.895 140.421 126.038 139.982 126.182C140.746 126.083 140.965 125.895 141.404 125.751C142.133 125.733 142.905 125.733 143.66 125.742C143.642 125.742 143.625 125.751 143.599 125.751C143.432 125.769 143.336 125.787 143.274 125.814C142.888 125.886 142.431 125.958 142.343 126.029C142.668 125.957 142.958 125.903 143.221 125.867C143.212 126.1 145.723 126.514 141.887 126.307C142.545 126.864 144.24 126.244 146.364 126.352C145.275 126.532 142.861 126.837 143.081 126.891C144.626 126.595 146.197 126.667 149.797 126.828C152.94 126.99 156.161 127.205 157.715 127.151C157.706 126.702 157.671 126.334 157.618 126.064C157.583 125.759 157.548 125.435 157.513 125.112C157.794 125.049 157.855 125.004 157.768 124.977L157.513 125.067C157.504 125.022 157.504 124.977 157.495 124.932C157.627 124.95 157.724 124.959 157.768 124.977L158.162 124.833C158.188 124.815 158.25 124.833 158.241 124.788L158.195 124.617ZM97.035 1.69097C97.325 1.72697 97.65 1.72697 97.966 1.72697C97.984 1.73597 98.001 1.73597 98.019 1.73597C97.519 1.78997 97.097 1.84398 96.711 1.90698C96.517 1.85298 96.544 1.78997 97.035 1.69097ZM6.151 37.233C6.054 36.658 6.028 35.94 6.169 34.773C6.178 34.827 6.178 34.872 6.187 34.917C6.16 35.698 6.151 36.47 6.151 37.233ZM6.994 29.789C6.889 28.918 6.748 29.762 6.634 29.969C6.792 31.72 6.731 33.794 6.976 34.872L6.888 37.638C6.748 37.62 6.511 37.225 6.353 36.345C6.423 35.797 6.45 33.588 6.73 35.483C6.353 32.322 6.326 29.071 6.344 26.117C6.37 23.387 6.423 20.909 6.283 18.996C6.055 20.056 5.809 17.317 5.712 17.209C5.712 16.122 5.993 16.473 6.046 17.353C6.186 15.261 6.511 14.767 6.871 15.126C6.37 21.393 7.74 24.518 6.994 29.789ZM8.1 10.177C8.003 9.78197 7.942 9.20697 7.845 8.62297C7.933 8.60497 8.021 8.57798 8.1 8.55998V10.177ZM8.1 8.08497C7.74 8.04897 7.468 8.03096 7.248 8.06697C7.274 8.36296 7.327 8.67897 7.38 9.07397C7.362 8.75997 7.371 8.46197 7.38 8.18397C7.635 8.19297 7.889 8.20197 8.1 8.19297V8.47998C7.986 8.50698 7.872 8.52497 7.766 8.56097C7.898 9.27897 8.012 9.99797 8.012 10.617L7.819 10.267L8.065 13.221C8.083 13.257 8.091 13.284 8.1 13.311V20.908L7.995 21.348C7.934 21.123 7.872 20.953 7.784 20.881C7.802 21.114 7.793 21.653 7.766 22.264L7.669 22.677L7.248 18.133C7.336 17.451 7.441 16.876 7.45 16.157V16.148C7.45 15.636 7.415 15.088 7.274 14.352C7.09 13.598 7.037 13.723 6.835 13.679C6.484 12.179 6.045 10.168 5.474 7.13298L5.571 7.35697L5.51 6.40498L8.1 6.28797V8.08497ZM27.448 3.12797C26.052 3.45097 25.596 3.19996 24.253 3.20896C24.042 2.62496 26.035 2.86797 27.361 2.65197H27.51L27.448 3.12797ZM55.732 1.74497C55.442 1.82597 55.223 1.87997 54.986 1.92497C54.968 1.79897 55.276 1.76297 55.732 1.74497ZM40.668 3.67597C40.668 3.68497 40.677 3.70297 40.677 3.71197C40.528 3.71197 40.396 3.72097 40.247 3.72097C40.387 3.70297 40.528 3.69397 40.668 3.67597ZM42.678 3.69396C43.073 3.77496 43.451 3.85597 43.143 3.95397C43.468 3.87297 43.635 3.76497 43.6 3.67597C44.847 3.64897 46.119 3.64898 47.375 3.63998C45.883 3.74798 43.959 3.81097 43.143 3.95397C42.458 3.88197 41.775 3.89097 41.107 3.92697L40.238 3.82797C41.011 3.76497 41.836 3.72096 42.678 3.69396ZM40.212 3.97196C38.913 4.06196 37.772 4.16097 36.999 3.89997L37.306 3.86398C38.008 3.91798 39.141 3.94496 40.212 3.97196ZM29.59 3.57698C29.116 3.54098 28.668 3.53198 28.247 3.53198C28.036 3.43298 28.528 3.30797 28.3 3.09197C29.371 2.89397 31.39 2.43597 32.689 2.48097C32.083 2.54397 31.548 2.62498 31.126 2.74098L31.969 2.87597C32.671 2.73197 34.067 2.74997 34.62 2.91197C34.006 2.93897 33.874 3.00197 33.935 3.07397C31.951 2.93897 29.748 3.32498 29.59 3.57698ZM33.926 3.66697L34.172 3.20896C34.55 3.36996 35.085 3.55897 33.926 3.66697ZM33.821 3.84597L33.847 3.80998L36.902 3.33396C36.981 3.48696 37.982 3.45997 38.939 3.45997L39.79 3.72897C38.631 3.74697 37.56 3.72897 36.621 3.74697C36.682 3.79197 36.928 3.82798 37.279 3.85498L33.821 3.84597ZM37.534 127.284C37.218 127.383 36.999 127.491 36.832 127.607C36.455 127.535 36.112 127.454 35.822 127.374C36.445 127.302 37.139 127.257 37.859 127.221C37.754 127.239 37.64 127.257 37.534 127.284ZM43.714 128.173C43.038 128.155 42.371 128.128 41.712 128.092C42.405 127.912 43.538 127.796 44.67 127.876C44.592 128.056 44.022 128.11 43.714 128.173ZM44.961 128.2C45.4 128.137 45.576 128.128 45.453 127.949L47.209 128.227C46.471 128.227 45.716 128.218 44.961 128.2ZM45.444 127.93C45.409 127.894 45.374 127.849 45.321 127.795C45.663 127.741 45.944 127.687 46.199 127.633L47.568 127.956L45.444 127.93ZM51.001 128.675L50.501 128.316C51.475 128.235 53.846 128.172 55.013 128.145C55.101 128.208 55.469 128.298 55.873 128.396C54.117 128.523 52.423 128.711 51.001 128.675ZM60.262 128.819C61.289 128.612 62.132 128.325 63.466 128.154C63.861 128.199 64.502 128.208 65.547 128.154C64.835 128.711 62.246 128.873 60.262 128.819ZM62.298 127.212C62.386 127.221 62.456 127.221 62.526 127.23C62.631 127.248 62.754 127.275 62.886 127.293C63.272 127.419 62.904 127.67 62.886 127.877C62.535 127.868 62.149 127.868 61.675 127.859C63.993 127.571 62.167 127.589 62.298 127.212ZM66.047 127.553C63.001 127.643 62.79 127.526 63.352 127.346C64.353 127.445 65.599 127.454 66.082 127.499L66.047 127.553ZM64.519 127.05C64.861 126.969 65.134 126.888 65.213 126.817L65.362 126.826C65.248 126.951 64.932 127.014 64.519 127.05ZM75.089 128.649C74.949 128.667 74.817 128.694 74.685 128.712L74.992 128.721C74.974 128.766 75.01 128.82 75.132 128.892C74.869 128.838 74.605 128.793 74.579 128.73C74.614 128.73 74.65 128.721 74.685 128.712H74.587C74.605 128.694 74.631 128.676 74.71 128.649C74.886 128.631 75.052 128.622 75.219 128.613C75.177 128.622 75.124 128.631 75.089 128.649ZM75.159 127.661C75.062 127.499 74.264 127.428 73.175 127.401C74.738 127.284 76.072 127.06 76.783 126.799C74.237 126.799 73.631 127.221 71.718 127.374C70.779 127.374 69.76 127.383 68.83 127.383C68.031 127.302 67.583 127.23 67.364 127.167C68.444 126.844 70.094 126.7 71.806 126.592C70.849 126.601 69.374 126.601 68.005 126.61C67.891 126.538 67.628 126.457 67.145 126.359L64.468 126.655C63.16 126.736 62.396 126.906 61.685 127.059C61.123 127.068 60.702 127.122 60.588 127.257C60.535 127.257 60.491 127.266 60.439 127.275C60.492 127.266 60.527 127.266 60.579 127.266C60.544 127.302 60.535 127.356 60.57 127.419C60.351 127.374 60.14 127.338 59.938 127.311C57.024 126.826 55.9 127.078 52.397 126.521C51.502 126.754 52.88 126.79 53.942 126.844C52.037 126.781 51.923 127.491 49.439 127.015C48.228 126.907 48.965 127.464 50.984 127.545C49.597 127.509 48.245 127.545 46.779 127.509C47.771 127.258 48.21 127.006 49.298 126.755C48.508 126.827 47.446 126.845 46.269 126.854C46.884 126.773 47.41 126.683 47.805 126.549C46.989 126.307 44.838 127.043 43.784 126.36L42.652 126.773C41.344 126.89 38.342 126.997 38.087 126.557C41.651 126.306 42.59 125.937 44.399 125.605C44.417 125.506 44.741 125.47 45.259 125.452C45.277 125.452 45.278 125.452 45.286 125.452C46.339 125.434 48.068 125.515 49.051 125.425C50.306 125.542 49.437 125.775 49.297 125.865C53.572 126.494 56.566 125.138 61.078 125.587C61.096 125.686 61.35 125.776 61.71 125.847C57.891 125.982 52.993 125.515 53.028 126.449C54.204 126.377 56.118 126.377 57.847 126.081V126.934C60.402 126.853 58.145 126.278 61.762 126.216L60.7 126.189C61.297 126.117 62.008 126.063 62.781 126.027C63.501 126.126 64.063 126.207 63.527 126.296C65.757 126.422 67.144 126.125 68.566 125.892C68.935 125.883 69.295 125.883 69.646 125.874C69.98 125.955 70.55 125.982 71.077 126.018C71.349 126.099 71.858 126.162 72.183 126.26C72.165 126.26 72.148 126.269 72.13 126.278L72.209 126.26C72.428 126.332 72.56 126.422 72.455 126.547C74.483 126.421 76.484 126.305 77.59 125.9C78.793 125.918 79.881 125.963 80.18 126.178C82.006 126.088 80.698 125.585 83.226 125.819C83.103 125.909 83.305 125.963 82.778 125.936C83.041 125.99 83.41 126.026 83.814 126.053C81.058 126.637 78.319 127.23 75.159 127.661ZM85.483 125.712C85.439 125.703 85.413 125.703 85.369 125.703C85.404 125.577 86.124 125.425 87.16 125.371C86.597 125.479 86.036 125.595 85.483 125.712ZM88.775 1.77197C87.318 1.87097 85.659 1.87098 84.052 1.65498C86.036 1.62798 85.527 1.23298 88.924 1.44798C87.449 1.64598 88.397 1.65497 88.775 1.77197ZM123.494 4.06198C123.713 4.13398 124.047 4.21497 124.319 4.28597C123.854 4.31297 123.353 4.32197 122.704 4.32197C122.643 4.30397 122.581 4.27697 122.52 4.25897C122.791 4.18797 123.116 4.12498 123.494 4.06198ZM118.165 4.80697C118.033 4.87897 117.84 4.91498 118.305 4.92398C119.613 4.92398 120.623 4.80697 121.518 4.66397C122.677 4.78997 123.923 4.84398 124.441 5.08598L121.922 5.45397L121.027 5.06797L119.579 5.50798C119.834 5.53498 120.15 5.57098 120.483 5.61598H117.419L114.689 5.30197C115.338 5.15697 116.857 4.96897 118.165 4.80697ZM123.265 125.398C123.098 125.524 122.782 125.587 122.387 125.623C121.281 125.461 120.438 125.237 120.157 125.012L121.114 124.895C122.493 124.922 121.123 125.515 123.265 125.398ZM116.91 5.61497H111.204C112.705 5.56997 115.303 5.56097 116.91 5.61497ZM100.845 127.616C100.503 127.598 100.081 127.589 99.546 127.589C100.081 127.571 100.599 127.517 101.065 127.454C100.81 127.508 100.766 127.562 100.845 127.616ZM109.913 127.257C107.683 127.302 111.265 126.619 107.859 126.736C106.937 127.104 104.734 126.826 104.067 127.068C104.155 126.897 104.199 126.709 102.443 126.718C102.329 126.817 102.496 127.104 101.117 127.122C100.16 126.386 104.646 126.906 103.031 126.26C99.107 126.314 100.529 126.942 99.941 127.239C100.073 127.221 100.283 127.248 100.678 127.257C100.643 127.49 99.063 127.329 99.159 127.589C98.518 127.589 97.719 127.589 96.692 127.616L99.65 127.104C97.447 126.844 96.937 127.436 95.348 127.346C95.445 127.274 95.225 127.014 96.006 126.897L95.19 126.978L98.965 125.963C100.501 125.756 102.029 125.523 103.767 125.334C108.112 125.325 113.336 125.576 117.277 125.37C116.996 125.828 118.357 126.304 114.88 126.546L111.184 126.474L109.913 127.257ZM113.635 127.679L113.67 127.463C113.933 127.454 114.205 127.445 114.469 127.445C114.232 127.499 113.96 127.571 113.635 127.679ZM115.909 127.427C115.865 127.418 115.812 127.409 115.76 127.4C115.936 127.391 116.102 127.391 116.269 127.382C116.164 127.391 116.032 127.409 115.909 127.427ZM120.465 126.844L121.115 126.763C119.122 126.628 116.568 126.718 115.031 127.068C114.408 126.826 115.119 126.727 116.049 126.664C116.128 126.691 116.225 126.709 116.347 126.736C116.391 126.7 116.452 126.673 116.514 126.646C117.848 126.583 119.262 126.565 117.892 126.305C117.962 126.296 118.032 126.287 118.103 126.287C118.814 126.314 119.595 126.287 120.394 126.224C121.807 126.251 123.387 126.323 124.827 126.323C123.204 126.475 121.966 126.871 120.465 126.844ZM125.267 126.7L127.216 126.736C126.452 126.79 125.732 126.817 125.267 126.7ZM127.11 126.305C126.891 126.278 126.689 126.278 126.478 126.278C126.891 126.251 127.286 126.215 127.628 126.152C129.261 126.242 128.831 126.359 128.234 126.457C128.278 126.35 128.067 126.269 127.11 126.305ZM128.05 126.646C128.094 126.619 128.138 126.583 128.173 126.547L128.77 126.358C129.139 126.394 129.428 126.43 129.657 126.466C129.226 126.502 128.655 126.583 128.05 126.646ZM155.061 6.76498C155.035 6.76498 155.008 6.77397 154.982 6.77397C154.964 6.52297 154.938 6.27997 154.929 6.02897C155.28 6.02897 155.561 6.03797 155.789 6.07397C155.71 6.79197 155.587 7.42997 155.473 8.60597C155.079 9.27897 155.131 7.85098 155.061 6.76498ZM155.447 11.838C155.438 12.233 155.429 12.727 155.412 13.275L155.149 9.92597C155.184 9.70097 155.219 9.53097 155.263 9.46797L155.447 11.838ZM155 7.01597C154.991 6.95297 154.991 6.88998 154.982 6.83598H154.991C154.991 6.88998 155 6.95297 155 7.01597ZM154.921 5.89398C154.974 5.89398 155.026 5.89396 155.088 5.90296C155.079 5.92996 155.018 5.94797 154.921 5.96597V5.89398ZM153.823 5.83998C154.016 5.83998 154.218 5.84897 154.438 5.85797C154.438 5.91197 154.447 5.97497 154.447 6.02897C154.394 6.02897 154.35 6.03797 154.307 6.03797H154.447C154.456 6.34297 154.447 6.61296 154.429 6.81896C154.315 6.82796 154.21 6.84597 154.104 6.87297C154.06 6.73797 154.025 6.58596 153.99 6.38796L154.051 6.87297C153.981 6.89097 153.902 6.89998 153.84 6.90898C153.91 6.90898 153.989 6.89997 154.059 6.89997L154.094 7.15997C154.006 7.15097 153.918 7.14198 153.822 7.14198V5.83998H153.823ZM154.429 6.86398C154.411 7.01698 154.385 7.12398 154.359 7.18698C154.306 7.17798 154.262 7.17797 154.21 7.16897C154.175 7.11497 154.14 7.01597 154.105 6.89097C154.21 6.88097 154.315 6.87198 154.429 6.86398ZM154.728 38.374C154.798 38.051 154.86 37.844 154.895 37.817C154.798 37.449 154.956 34.818 155.167 33.758L154.912 32.986C154.701 29.933 154.482 25.64 154.034 22.049C154.016 21.681 153.981 21.367 153.92 21.16C153.885 20.953 153.859 20.738 153.823 20.54V16.517C153.841 16.4 153.858 16.292 153.867 16.176V16.167C153.92 15.673 153.928 15.08 153.858 14.335C153.849 14.254 153.84 14.191 153.823 14.137V7.27597C153.928 7.29397 154.025 7.30297 154.113 7.30297L154.385 9.23397C154.517 10.177 154.666 11.317 154.771 11.964L154.631 8.55197C154.719 8.67797 154.789 8.90197 154.842 9.18997L154.781 12.692C154.957 13.5 154.992 12.494 155.044 11.39C155.044 11.543 155.053 11.677 155.062 11.785C155.097 12.755 155.15 13.734 155.396 14.236C155.387 14.407 155.387 14.586 155.378 14.766C155.36 15.296 155.343 15.853 155.317 16.436C155.291 16.966 155.264 17.514 155.238 18.052C155.098 20.234 154.878 22.38 154.492 23.449C154.141 26.233 154.738 25.029 155.01 25.748C155.344 27.445 154.773 28.99 154.878 30.642C155.255 30.606 155.159 32.555 155.615 32.645L155.422 35.339C156.054 36.875 155.659 32.106 155.993 31.406C156.651 29.987 156.125 33.4 156.52 32.484C156.529 30.41 156.213 30.248 156.151 29.233C156.142 28.048 156.327 27.419 156.564 27.464C156.178 30.778 156.985 29.296 156.792 31.99L156.643 32.071C157.099 32.161 156.678 36.004 156.862 37.459C156.239 40.395 156.23 35.043 156.089 35.133L156.115 38.743C155.852 37.163 155.509 38.743 155.29 36.624V36.983C155.246 36.543 155.167 36.31 154.965 36.22C154.965 37.296 155.123 39.676 154.728 38.374ZM155.632 52.724L155.781 52.095C155.781 52.598 155.72 52.733 155.632 52.724Z" fill="#212123"/>
<path d="M134.333 129.566L132.108 129.536C132.797 129.576 133.515 129.596 134.333 129.566Z" fill="#212123"/>
<path d="M153.471 127.988C154.044 127.986 154.6 127.984 155.18 127.982C154.388 127.969 153.88 127.975 153.471 127.988Z" fill="#212123"/>
<path d="M158.957 113.582C158.914 116.204 158.861 119.463 158.818 122.122C158.794 124.849 158.832 127.085 159.052 128.01C158.984 127.87 158.907 127.86 158.847 128.331C158.797 128.318 158.662 128.305 158.505 128.294L155.359 128.787L159.005 129.012C157.403 129.257 153.39 129.302 149.533 129.241C148.571 129.219 147.621 129.197 146.719 129.176C146.166 129.154 145.741 129.128 145.307 129.096C144.466 129.034 143.812 128.954 143.506 128.866C145.438 128.803 145.922 128.603 146.595 128.473C147.074 128.41 147.797 128.367 148.854 128.369C149.937 128.371 151.44 128.418 153.796 128.541C153.272 128.367 151.521 128.049 153.471 127.988C152.18 127.986 150.905 127.985 149.642 127.983C148.478 127.973 147.325 127.963 146.178 127.953C144.66 127.935 143.159 127.918 141.651 127.901C138.635 127.874 135.589 127.894 132.321 128.124C137.451 128.734 128.948 128.515 130.552 129.219L133.351 129.036L133.111 129.215L136.522 129.207C135.827 128.884 135.301 128.856 135.458 128.53C140.008 128.727 136.888 128.941 140.221 129.405L145.31 129.422L144.897 129.514C145.326 129.513 145.515 129.475 145.663 129.424L160.001 129.537L160.004 114.177C159.763 110.979 159.419 115.942 158.957 113.582Z" fill="#212123"/>
<path d="M158.799 80.652L158.857 80.703C158.826 80.586 158.802 80.549 158.799 80.652Z" fill="#212123"/>
<path d="M159.037 83.524L158.734 82.82L159.373 85.964L159.299 81.056L158.857 80.702C158.971 81.136 159.206 82.856 159.037 83.524Z" fill="#212123"/>
<path d="M158.821 88.607C158.572 86.281 159.373 87.377 158.821 85.777C158.448 85.831 158.677 88.698 158.748 89.357L159.766 89.619C159.569 87.084 159.052 87.224 158.821 88.607Z" fill="#212123"/>
<path d="M159.495 108.319L159.282 107.605L159.22 109.361L159.495 108.319Z" fill="#212123"/>
<path d="M158.919 106.386L159.282 107.605L159.344 105.862C159.185 105.983 159.029 106.102 158.919 106.386Z" fill="#212123"/>
<path d="M159.498 101.29C159.538 100.552 159.567 99.736 159.582 98.743L159.498 101.29Z" fill="#212123"/>
<path d="M159.364 103.283L159.432 103.224L159.498 101.29C159.45 102.002 159.407 102.642 159.364 103.283Z" fill="#212123"/>
<path d="M159.344 105.863C159.708 105.581 160.089 105.25 159.99 102.729L159.432 103.224L159.344 105.863Z" fill="#212123"/>
<path d="M159.702 94.068C159.932 94.109 159.793 92.784 159.724 92.118C159.706 92.659 159.631 93.42 159.702 94.068Z" fill="#212123"/>
<path d="M158.273 44.13L158.429 42.952C158.329 43.37 158.279 43.584 158.273 44.13Z" fill="#212123"/>
</svg>
