<svg width="845" height="471" viewBox="0 0 845 471" fill="none" xmlns="http://www.w3.org/2000/svg">
<path d="M263.702 12.362L15.1153 1H12.7628L1 23.7241L5.70512 88.7402L15.8995 188.474L12.7628 235.816L9.62605 290.732L6.4893 353.223L22.9572 405.615L12.7628 452.957L42.5619 466.213L62.9507 464.319L105.297 466.213H143.722L313.89 470L372.704 459.9L622.075 469.369L663.637 457.375L832.237 469.369L840.863 450.432L832.237 335.549L840.863 311.563L832.237 281.264L844 199.836L835.374 105.152L844 1L764.013 4.78735L672.263 1L631.486 16.7806L585.219 1L502.095 13.6245L392.309 1L263.702 12.362Z" fill="black" stroke="black"/>
</svg>
