<svg width="160" height="130" viewBox="0 0 160 130" fill="none" xmlns="http://www.w3.org/2000/svg">
<path d="M3.74201 18.2787C3.72001 17.8277 3.68701 17.3977 3.62101 17.0027C3.59501 18.2557 3.65701 18.4147 3.74201 18.2787Z" fill="#212123"/>
<path d="M93.296 123.672L91.401 124.243C92.162 124.076 92.829 123.872 93.296 123.672Z" fill="#212123"/>
<path d="M49.747 127.194C49.554 127.216 49.346 127.234 49.115 127.243C49.362 127.224 49.54 127.21 49.747 127.194Z" fill="#212123"/>
<path d="M4.05801 76.8107L4.10602 76.8587C4.09002 76.8157 4.07401 76.8077 4.05801 76.8107Z" fill="#212123"/>
<path d="M4.30301 77.0517L4.10602 76.8587C4.20002 77.0917 4.27301 77.9737 4.30301 77.0517Z" fill="#212123"/>
<path d="M93.296 123.672L94.71 123.244C94.506 123.247 94.237 123.235 93.981 123.227C93.928 123.347 93.688 123.503 93.296 123.672Z" fill="#212123"/>
<path d="M90.032 123.439C87.958 123.843 88.778 124.267 85.641 124.439C86.858 124.091 87.138 123.416 84.13 123.489C76.643 124.409 71.728 126.258 64.72 127.357C64.445 126.928 58.923 127.245 56.232 127.223C57.243 126.717 59.232 126.511 61.296 126.347C59.997 126.374 57.763 126.42 56.104 126.454L55.456 127.409C47.984 127.725 57.27 126.608 53.831 126.529C51.759 126.678 51.037 127.054 49.746 127.196C55.667 126.733 48.973 128.392 54.95 128.032C54.119 128.699 50.654 128.86 48.617 128.731C46.303 128.17 50.615 128.229 51.12 127.61C48.721 127.77 49.147 127.872 48.136 128.242C44.363 128.193 40.341 129.171 38.072 128.342C35.34 128.515 35.524 128.815 33.954 129.154C33.678 129.76 37.204 129.515 38.651 129.832C38.554 129.79 38.491 129.745 38.545 129.702L40.913 129.805C38.664 129.615 41.214 129.139 42.412 129.062C43.284 129.031 45.017 128.968 44.782 129.155L43.464 129.323C45.17 129.502 47.204 128.761 49.006 129.074C49.104 129.22 48.426 129.307 48.326 129.401C50.326 128.903 52.265 128.877 55.228 128.467L53.524 129.173C55.883 128.381 61.27 128.417 65.012 128.657C64.594 128.561 63.846 128.51 64.289 128.367C66.473 128.129 68.143 128.518 67.142 128.901C69.259 128.277 75.307 129.032 78.188 128.196L91.4 124.244C90.904 124.352 90.372 124.446 89.822 124.501C88.581 123.982 87.931 124.083 90.032 123.439Z" fill="#212123"/>
<path d="M38.652 129.829C38.768 129.879 38.936 129.924 39.051 129.953C38.95 129.902 38.81 129.863 38.652 129.829Z" fill="#212123"/>
<path d="M72.307 125.223C72.415 125.256 72.59 125.277 72.893 125.282C72.703 125.251 72.508 125.236 72.307 125.223Z" fill="#212123"/>
<path d="M61.951 126.29C61.734 126.308 61.518 126.327 61.296 126.346C61.519 126.344 61.769 126.341 61.926 126.339C61.952 126.321 61.943 126.309 61.951 126.29Z" fill="#212123"/>
<path d="M93.712 123.018L93.483 123.212C93.676 123.218 93.81 123.222 93.981 123.227C94.027 123.126 93.968 123.046 93.712 123.018Z" fill="#212123"/>
<path d="M26.846 123.886L26.131 123.984C26.562 123.975 26.748 123.936 26.846 123.886Z" fill="#212123"/>
<path d="M72.307 125.223C71.586 125.004 74.67 124.289 70.585 124.756C70.915 124.709 70.705 124.661 71.03 124.613C68.378 124.375 67.343 125.003 65.068 125.094C63.7 124.9 67.277 124.617 65.99 124.567C63.159 124.907 57.069 124.584 57.286 125.498C55.22 125.628 54.928 125.43 54.306 125.281C51.061 126.377 42.15 125.162 42.205 126.409C43.4 126.333 45.351 126.331 47.099 126.015L47.11 126.88C49.708 126.773 47.405 126.21 51.081 126.116L50.001 126.102C52.63 125.752 57.265 125.744 60.394 125.612C60.05 125.888 62.304 125.87 61.951 126.292C64.088 126.118 66.203 125.948 67.289 125.484C68.619 125.57 70.617 125.116 72.307 125.223Z" fill="#212123"/>
<path d="M87.829 122.584C87.659 122.588 87.474 122.592 87.325 122.595C87.457 122.599 87.669 122.585 87.829 122.584Z" fill="#212123"/>
<path d="M50.561 1.19769C50.316 1.30069 50.011 1.37869 49.705 1.45469C50.274 1.34569 50.774 1.25569 50.561 1.19769Z" fill="#212123"/>
<path d="M48.87 1.62369C49.163 1.57569 49.445 1.51869 49.704 1.45469C49.424 1.51169 49.124 1.57169 48.87 1.62369Z" fill="#212123"/>
<path d="M138.775 2.18869C138.876 2.24169 139.032 2.28669 139.245 2.30069C139.183 2.19569 139.013 2.17269 138.775 2.18869Z" fill="#212123"/>
<path d="M40.633 2.68769L40.54 2.67369C40.458 2.69069 40.357 2.70169 40.305 2.72269L40.633 2.68769Z" fill="#212123"/>
<path d="M143.782 122.69L143.314 122.9C143.708 122.797 143.829 122.732 143.782 122.69Z" fill="#212123"/>
<path d="M158.611 119.323C158.626 119.36 158.642 119.399 158.666 119.458C158.643 119.376 158.627 119.365 158.611 119.323Z" fill="#212123"/>
<path d="M158.611 119.323C158.592 119.296 158.572 119.252 158.561 119.275C158.576 119.285 158.591 119.284 158.611 119.323Z" fill="#212123"/>
<path d="M155.712 57.9687C155.712 57.9687 155.621 58.1487 155.53 58.4347C155.572 58.5477 155.629 58.4377 155.712 57.9687Z" fill="#212123"/>
<path d="M158.665 119.457C158.738 119.69 158.822 120.008 158.936 120.525C158.813 119.958 158.73 119.651 158.665 119.457Z" fill="#212123"/>
<path d="M156.608 14.0767C156.609 13.7747 156.607 13.4317 156.594 13.0147C156.597 13.2157 156.603 13.6777 156.608 14.0767Z" fill="#212123"/>
<path d="M155.481 45.1717C155.489 45.2047 155.499 45.2267 155.511 45.2197C155.508 45.1647 155.496 45.1577 155.481 45.1717Z" fill="#212123"/>
<path d="M158.438 121.139C158.02 118.934 157.594 116.041 157.225 112.882C157.134 112.088 157.038 111.29 156.972 110.447C156.934 109.831 156.896 109.203 156.857 108.568C156.801 107.464 156.766 106.336 156.759 105.225C157.435 105.51 157.492 111.514 157.816 108.273C157.617 106.468 156.758 105.04 157.033 101.86C157.45 103.187 157.382 100.406 157.62 100.437L156.702 96.0687C156.736 94.1587 156.759 91.9987 156.594 90.1567C156.627 90.7047 156.633 91.3477 156.611 92.0967C155.784 89.0957 156.804 86.5637 156.507 82.7447L156.767 84.5047C156.942 81.6237 156.693 79.3327 156.475 77.0327L156.951 77.1037C156.298 76.7917 156.234 71.8127 156.055 70.7007C156.388 77.7767 155.416 76.7737 155.893 83.6217C155.556 82.2837 155.357 81.1397 155.165 79.9577V71.0777C155.248 71.8987 155.385 72.4257 155.73 71.4037L155.372 70.0477C155.401 68.6427 155.727 68.8067 155.728 69.6787C155.634 67.8237 155.763 68.2717 155.468 67.5757C155.59 60.4417 156.234 68.3507 156.681 61.3857C156.823 62.1807 156.746 64.1087 157.108 63.7387L156.866 67.4807L157.341 67.5627C157.507 62.8317 156.95 60.0327 156.247 57.8437C156.574 62.1327 155.733 58.2957 155.441 60.5257C155.225 59.6847 155.379 58.9017 155.531 58.4337C155.41 58.1357 155.39 56.2197 155.165 56.2087V56.1817C156.292 54.9867 156.655 46.0037 157.733 48.1347C158.171 45.5087 157.868 37.3097 158.091 31.5737L158.337 33.1457C159.64 27.2037 157.795 27.8167 157.69 24.3047C157.929 27.4017 158.326 21.6017 158.73 20.3767C158.591 18.9927 158.464 17.7267 158.324 16.3297C158.266 15.6217 158.221 14.9157 158.213 14.0747C158.223 12.9847 158.267 11.8207 158.362 10.5067C158.902 9.28269 159.688 8.99368 160.006 4.92168L159.829 3.30669C159.611 3.22269 159.428 3.11669 159.095 3.11169C157.313 2.65569 155.194 2.19469 153.226 1.85969C151.254 1.50369 149.44 1.36369 148.223 1.24469L148.747 1.21268C148.479 1.19868 148.227 1.18469 147.991 1.17269C147.796 1.16569 147.615 1.15969 147.447 1.15369C147.183 1.14769 146.96 1.15468 146.778 1.17068C146.412 1.20168 146.206 1.26969 146.154 1.34869C146.049 1.50669 146.559 1.71069 147.633 1.75869L145.002 2.02769L144.915 1.87769C141.432 2.15769 138.193 2.88369 132.676 2.97769C134.148 2.51369 128.498 2.07169 133.477 1.95369C132.044 2.17969 134.267 2.42169 134.554 2.62669C136.354 2.74269 137.983 2.23869 138.778 2.18969C138.189 1.92269 138.714 1.28369 139.671 0.924686C136.105 1.68469 126.085 0.906685 125.251 2.17068C120.843 2.07368 115.089 2.34968 110.059 2.08068C110.267 2.13768 110.674 2.25269 110.555 2.34269L106.22 1.76969L107.218 1.66569L104.362 1.25269C104.066 1.04669 105.179 0.854684 106.36 0.810684C107.035 0.743684 107.646 0.914686 106.987 0.981686C110.066 0.587686 104.432 0.771687 106.433 0.332687C107.187 0.412687 108.165 0.311686 108.704 0.335686C105.198 -0.0113143 103.565 0.783687 101.408 0.0626869C99.733 0.469687 96.326 0.898684 93.143 0.518684C94.381 0.234684 89.691 0.559686 91.287 0.00268555C90.058 0.284686 87.207 -0.128312 86.723 0.234688C87.172 0.110688 88.564 0.123684 89.523 0.261684C88.206 0.395684 88.044 0.727685 86.443 0.655685C86.236 0.597685 86.354 0.508686 86.354 0.508686C84.263 0.800686 85.639 1.68168 81.98 1.66468C72.353 1.86768 83.348 0.423684 81.988 0.171684C81.629 0.444684 77.387 0.643687 75.482 0.367687L75.94 0.241688C74.956 0.343688 73.511 0.570688 72.476 0.283688C71.875 0.738688 70.73 1.16968 70.044 1.47668L65.722 1.52769L66.619 1.27869C65.633 1.37969 64.767 1.38968 63.897 1.39968C63.524 1.04668 64.797 1.15069 66.115 1.01669C65.411 0.696685 64.546 0.706684 63.524 1.04668L64.063 1.06969C62.954 1.26169 58.888 1.75768 62.103 1.89968C59.683 2.22768 58.932 1.51768 57.279 1.68568C57.111 1.39068 58.631 1.31369 57.801 1.08469C56.197 1.01369 55.131 0.966685 53.814 1.10069C55.093 1.20569 53.447 1.37468 55.467 1.55968C54.69 1.71868 52.639 1.77169 52.72 1.91869C53.377 1.85369 53.833 1.72768 54.981 1.92168C52.807 2.06768 50.544 2.06569 48.317 1.82269C48.397 1.75369 48.62 1.68769 48.874 1.62469C45.977 2.12169 41.629 1.96569 39.686 2.55169L40.543 2.67569C41.243 2.51469 42.663 2.50369 43.225 2.65969C41.05 2.80469 44.764 3.20869 42.465 3.44469C39.301 3.69069 36.494 3.03769 34.766 3.68369C37.772 3.76669 41.826 4.13969 43.049 3.85469L41.109 3.81769L45.542 3.04869C45.71 3.34469 49.451 2.88369 49.374 3.36169C47.849 3.43869 46.456 3.42668 45.263 3.46968C45.546 3.67568 49.343 3.60169 50.946 3.67269L48.927 3.48869C52.538 3.11669 57.147 3.27069 60.647 2.99169C57.894 3.35269 64.145 3.33869 61.935 3.72169C61.037 3.97069 59.588 3.57169 60.003 3.68369C59.725 4.10669 62.142 3.77969 62.849 4.09869C63.22 3.82469 66.797 3.69369 64.69 3.36169C65.846 3.55669 68.387 3.13869 69.961 3.44769C69.496 2.94669 72.905 3.14468 73.488 2.92768C74.175 2.95768 74.773 3.05869 75.24 3.17669C73.778 3.33969 71.989 3.53869 70.126 3.74669L70.13 3.74369C69.383 3.66369 67.99 3.64969 68.402 3.76469L68.371 3.95169C67.379 4.06869 66.389 4.18669 65.431 4.30069H5.11201V11.0597L5.10603 11.0787L4.628 2.93169C3.739 9.55369 5.13401 12.7377 4.12401 18.1127C4.05201 17.2467 3.87003 18.0757 3.74403 18.2787C3.83103 20.0207 3.66603 22.0817 3.88603 23.1617L3.68001 25.9077C3.44401 25.8607 2.93603 24.7597 3.14903 21.9537C2.39103 31.7787 3.11601 39.3777 2.18101 49.2347C2.04801 49.6467 2.10402 47.9097 1.99202 48.6507C2.05802 49.7967 2.103 51.5797 2.21 52.0007C2.123 51.8447 2.01701 51.5437 2.03901 50.8477C2.02001 55.9747 1.186 58.6477 1.404 61.9627C1.102 62.1307 1.31102 59.4337 1.18602 59.8477C0.741018 64.8887 1.54901 67.5467 1.38301 72.6317C1.02401 70.9387 0.919011 73.7417 0.642011 75.1107C0.876011 79.2947 0.775027 88.1777 0.989027 94.5027C-0.0349732 92.8267 0.881016 101.538 0.00901584 102.048C-0.00698416 103.455 0.136021 105.647 0.471021 105.808C0.303021 105.015 0.589004 103.117 0.766004 103.366C0.785004 105.411 0.885012 108.601 1.34901 108.854C1.26601 109.712 1.18602 110.58 1.17802 111.46C1.53202 111.57 2.01803 112.321 2.36403 113.661C2.39903 115.278 2.58503 115.154 2.77003 115.158C2.87403 115.161 3.00001 115.201 3.19301 115.491C3.38801 115.781 3.60302 116.339 4.10902 117.306C3.25702 116.682 2.66401 115.913 2.25801 115.667C2.46201 116.196 2.63001 116.567 2.79701 116.837C2.95201 117.113 3.07603 117.301 3.21403 117.455C3.47503 117.773 3.70402 118.007 4.23802 118.597C4.30102 118.886 3.92702 118.699 3.35902 118.24C2.83102 117.762 2.15302 116.972 1.73402 116.162C2.05102 117.134 2.507 118.092 3.09801 118.985C3.62601 119.499 4.33001 120.012 5.11201 120.503V122.31H10.036C11.54 122.614 13.092 122.785 14.595 122.949C13.873 123.216 12.434 123.032 13.547 123.591C15.481 123.683 17.97 123.117 20.397 123.41C20.061 123.443 20.268 123.501 19.937 123.535C24.22 123.095 23.158 123.68 27.037 123.726C26.976 123.772 26.963 123.832 26.849 123.884L29.217 123.565C34.174 122.755 34.754 124.026 37.741 124.288L37.083 124.368C38.959 124.856 44.951 124.251 46.66 124.417C44.541 124.146 45.947 124.117 44.389 123.61C42.534 123.767 43.111 124.403 40.003 124.247C40.395 123.726 44.305 123.462 45.103 123.045C46.836 122.977 48.032 123.76 48.21 124.054C52.534 123.874 54.979 124.09 60.275 123.731C62.158 123.309 63.565 122.154 68.016 122.69L67.781 122.883C67.917 122.545 69.929 122.878 70.814 122.589C70.421 122.468 70.348 122.38 70.426 122.31H73.788C73.945 122.454 74.048 122.602 74.127 122.726C75.898 121.914 79.158 122.859 83.008 122.31H83.134C82.323 122.643 78.222 122.906 79.982 123.178L83.978 122.31H89.971C89.756 122.448 88.693 122.548 87.835 122.582C88.694 122.565 89.919 122.46 91.112 122.31H97.795L94.715 123.242C96.967 123.221 96.42 122.631 99.125 122.479C98.274 122.535 98.032 122.73 97.913 122.828L107.502 122.337C107.487 122.328 107.462 122.319 107.436 122.31H123.396L120.665 124.599C120.668 124.653 120.576 124.741 120.326 124.883L120.665 124.599C120.653 124.429 119.547 124.635 118.308 124.813C118.558 124.621 118.823 124.389 117.352 124.488C114.376 124.329 112.791 125.213 110.642 125.239L111.3 125.135C109.274 125.06 106.689 125.233 105.153 125.636C103.49 125.028 110.977 125.186 107.807 124.741C110.046 124.858 113.209 124.198 114.933 124.084C112.042 124.068 109.524 123.517 110.318 123.076C104.144 123.819 110.392 124.568 104.985 125.109L101.233 125.15L99.972 125.983C97.719 126.103 101.326 125.294 97.879 125.524C96.958 125.928 94.711 125.71 94.042 125.978C94.128 125.8 94.166 125.607 92.39 125.676C92.276 125.774 92.452 126.06 91.058 126.123C90.062 125.411 94.629 125.799 92.971 125.19C88.992 125.365 90.457 125.963 89.867 126.278C90.002 126.251 90.22 126.275 90.618 126.27C90.591 126.514 88.891 126.384 89.084 126.67C89.761 126.665 90.428 126.561 91.012 126.461C89.825 126.76 93.005 126.867 94.211 126.815C96.953 126.305 102.63 126.195 106.412 125.911C106.083 125.964 105.432 126.067 105.849 126.159C111.234 125.858 113.472 125.977 119.623 125.474L120.32 124.89C125.704 124.589 122.836 123.225 124.14 123.016C125.33 122.909 126.331 122.511 127.375 122.741L126.822 122.987C129.736 122.663 128.37 122.422 129.915 122.312H135.465C135.094 122.352 134.834 122.361 132.977 122.486C131.416 123.127 131.809 123.461 130.367 124.007C131.662 123.801 131.381 123.37 133.324 123.298C135.676 123.321 132.969 123.593 132.745 123.787C135.821 122.982 136.237 124.181 138.98 123.429C138.406 122.808 138.945 122.803 136.932 122.49C138.894 122.179 141.425 122.487 141.266 123.065L141.644 122.531C142.112 122.634 143.681 122.563 143.788 122.689L144.442 122.403C144.289 122.37 144.14 122.34 143.991 122.311H155.169V122.267C155.337 122.273 155.516 122.278 155.714 122.282L156.574 121.928C156.979 121.908 157.463 121.883 157.966 121.857L158.346 121.838L158.537 121.829L158.632 121.824C158.671 121.829 158.695 121.821 158.68 121.778C158.658 121.526 158.637 121.277 158.616 121.039C158.538 120.091 158.496 119.33 158.566 119.274C158.429 119.114 158.408 119.777 158.438 121.139ZM155.164 6.60669C155.169 6.61269 155.185 6.61169 155.187 6.62069L155.177 6.89769L155.164 7.31369V6.60669ZM155.164 13.2847C155.327 12.8557 155.477 11.8427 155.628 10.9627C155.836 9.75568 156.047 8.78269 156.271 10.4127C156.327 10.8247 156.553 10.9547 156.708 11.4597C156.786 11.7117 156.846 12.0607 156.858 12.5837C156.864 12.8447 156.858 13.1497 156.837 13.5057C156.823 13.6827 156.809 13.8717 156.793 14.0757C156.774 14.2447 156.754 14.4257 156.732 14.6187C156.66 14.6537 156.627 14.3857 156.61 14.0757C156.623 15.4907 156.425 15.7127 156.238 17.2387C155.714 17.6767 155.989 15.3327 155.706 14.2957C155.753 15.2887 155.885 16.4057 155.781 17.4857L155.612 17.2227L155.54 20.4937C155.844 21.8587 155.724 18.0187 156.031 17.8587L156.215 19.9687C156.179 22.3657 155.978 28.7547 155.17 30.8867C155.168 30.9027 155.167 30.9147 155.164 30.9297V13.2847ZM155.164 46.4167C155.302 45.7037 155.426 45.2227 155.481 45.1717C155.392 44.8057 155.565 42.1957 155.784 41.1387L155.209 39.4017C155.183 39.8227 155.171 40.2767 155.164 40.7217V32.7787C155.307 32.9447 155.545 32.8037 155.688 33.1737C156.024 34.8697 155.417 36.3927 155.518 38.0427C155.905 38.0057 155.789 39.9477 156.263 40.0377L156.044 42.7157C156.686 44.2507 156.302 39.5027 156.654 38.8077C157.35 37.4077 156.775 40.7927 157.19 39.8867C157.217 37.8267 156.897 37.6587 156.836 36.6547C156.841 35.4707 157.035 34.8497 157.273 34.8997C156.851 38.1857 157.697 36.7177 157.471 39.3977L157.321 39.4797C157.789 39.5697 157.332 43.3897 157.512 44.8347C156.85 47.7477 156.883 42.4287 156.732 42.5157L156.738 46.1057C156.478 44.5317 156.115 46.0977 155.896 43.9877C155.964 46.1807 155.512 46.4227 155.731 48.5267C155.457 47.4787 155.296 47.9017 155.164 48.7317V46.4167ZM5.10902 109.121C4.87402 108.263 4.67401 107.24 4.50801 106.141C4.28301 104.65 4.093 102.98 3.865 101.557C4.272 98.7007 4.05503 95.5287 4.21403 92.3107L4.42402 92.8877C4.56802 91.0697 4.39003 88.2327 4.54103 85.5527L4.96101 84.9617C4.88401 83.1147 4.89103 79.6557 4.98903 76.8417C4.75103 76.8057 4.72401 79.4057 4.47001 78.1677C4.42201 79.5717 4.44902 80.7627 4.71702 80.2687C4.68102 81.6707 4.29503 81.7177 4.08003 82.8667L3.94301 77.4267C3.98301 76.9927 4.02103 76.8377 4.05803 76.8127L3.62703 76.4007C3.67103 74.9917 3.79403 74.5877 3.96803 74.8297C3.88303 71.7717 3.34803 70.6927 3.57503 67.4737C3.90803 68.8497 4.13202 69.7547 4.06502 72.0267L4.18501 68.3517C4.53801 70.0457 4.24203 76.3967 4.94603 75.3267C4.77803 71.2837 4.591 65.3867 4.197 61.8337C4.77 59.9787 4.29002 57.1717 4.63902 54.0857C4.76402 53.6917 4.93201 52.8407 5.10802 53.2487V109.121H5.10902ZM110.762 4.29969H101.418L105.314 3.50769C102.964 3.35669 102.604 4.25568 99.731 4.08068C99.925 3.51168 99.748 3.21569 102.824 2.81969C105.503 2.93869 102.675 3.15069 104.035 3.40269C106.077 2.72169 106.644 3.99969 108.804 3.22769C111.395 3.19669 110.584 3.59469 111.408 3.82269C109.662 3.84469 110.826 4.10369 110.762 4.29969ZM111.799 4.29969C112.164 4.16469 112.578 4.05468 113.519 4.15668L113.601 4.29969H111.799ZM115.489 124.944L117.461 124.922C116.696 125.006 115.963 125.047 115.489 124.944ZM133.451 4.29969H123.947C124.006 4.26569 124.022 4.22769 123.975 4.18369C123.938 4.23069 123.872 4.26769 123.794 4.29969H121.101C120.699 4.23069 120.421 4.14769 120.432 4.07669C122.146 3.97369 126.276 3.89369 127.616 3.99269L124.372 3.67269C125.601 3.38769 129.994 2.85869 130.113 2.76969C131.483 3.02169 133.534 2.96568 134.242 3.28868L131.7 3.70568L130.789 3.32869L129.323 3.79469C130.357 3.90669 132.105 4.08169 133.451 4.29969ZM155.164 121.682C155.168 121.682 155.171 121.681 155.175 121.68C155.171 121.681 155.168 121.681 155.164 121.682ZM157.951 121.413C157.591 121.439 157.191 121.468 156.758 121.498C156.266 121.522 155.726 121.549 155.164 121.576V121.523C155.425 121.515 155.681 121.508 155.959 121.496C156.391 121.472 156.848 121.446 157.334 121.419C157.573 121.402 157.819 121.384 158.073 121.366C158.096 121.357 158.154 121.377 158.15 121.343L158.138 121.242L158.113 121.038C158.096 120.9 158.079 120.761 158.061 120.619C158.086 120.768 158.114 120.929 158.143 121.102C158.156 121.187 158.169 121.275 158.182 121.366C158.148 121.418 158.028 121.396 157.951 121.413Z" fill="#212123"/>
<path d="M36.732 2.85469C35.5 3.13669 34.719 3.29569 32.787 3.25869C32.066 2.31169 35.951 3.01168 36.832 2.13668C33.292 2.02868 32.2 2.84769 29.287 2.91168C30.728 3.31269 36.622 3.57069 36.732 2.85469Z" fill="#212123"/>
<path d="M38.507 1.72668L38.311 1.67068L36.341 1.87268L36.535 1.92969L38.507 1.72668Z" fill="#212123"/>
<path d="M112.34 1.21669L111.355 1.31668L111.115 1.49969L112.34 1.21669Z" fill="#212123"/>
<path d="M110.877 0.187687L109.976 0.437687L112.694 0.315685L110.877 0.187687Z" fill="#212123"/>
<path d="M128.723 3.38169L127.096 3.55069C127.418 3.51769 129.642 3.75769 128.723 3.38169Z" fill="#212123"/>
<path d="M141.292 1.81769C141.311 1.84569 141.355 1.87769 141.46 1.91869C141.413 1.88469 141.352 1.85069 141.292 1.81769Z" fill="#212123"/>
<path d="M141.292 1.81769C141.108 1.54369 144.489 1.78369 142.395 1.43069C140.671 1.47569 140.978 1.64369 141.292 1.81769Z" fill="#212123"/>
<path d="M155.277 16.2277C155.281 16.4547 155.286 16.7277 155.291 17.0517C155.26 16.7777 155.261 16.4947 155.277 16.2277Z" fill="#212123"/>
<path d="M155.452 13.9067C155.196 14.9797 155.246 15.3707 155.277 16.2277C155.327 15.3617 155.539 14.5137 155.452 13.9067Z" fill="#212123"/>
<path d="M159.075 14.7797L159.474 16.6027L159.443 15.9407L159.075 14.7797Z" fill="#212123"/>
<path d="M157.554 54.4007C157.235 52.1647 156.486 57.8937 156.281 54.0547C155.703 58.9807 156.851 53.6947 156.665 57.3357C156.87 55.2067 157.402 54.1787 157.554 54.4007Z" fill="#212123"/>
<path d="M156.665 57.3357C156.646 57.6167 156.624 57.9417 156.597 58.3447C156.611 57.9797 156.634 57.6447 156.665 57.3357Z" fill="#212123"/>
<path d="M156.678 68.9717L156.169 65.6287C156.487 67.8637 156.385 73.4547 156.977 73.1157C157.128 71.3077 157.001 69.1287 156.769 68.2277L156.678 68.9717Z" fill="#212123"/>
<path d="M157.535 112.11L158.013 117.023C158.383 116.002 157.872 115.643 157.729 112.835L158.494 116.22C158.311 113.546 157.585 111.436 157.535 112.11Z" fill="#212123"/>
<path d="M75.468 124.262L77.64 124.01L76.773 124.064L75.468 124.262Z" fill="#212123"/>
<path d="M64.045 123.746C65.091 123.987 67.049 123.703 67.703 123.607C65.439 123.701 66.416 123.557 64.045 123.746Z" fill="#212123"/>
<path d="M66.957 126.636L64.776 126.875L64.982 126.923L66.957 126.636Z" fill="#212123"/>
<path d="M51.235 126.648L51.026 126.595L49.053 126.856L49.264 126.909L51.235 126.648Z" fill="#212123"/>
<path d="M38.413 126.723C38.928 126.674 39.337 126.606 39.607 126.5C39.118 126.573 38.749 126.647 38.413 126.723Z" fill="#212123"/>
<path d="M34.364 127.767C36.631 127.429 36.879 127.068 38.413 126.723C35.673 126.986 29.913 126.539 26.432 127.172C24.512 127.775 25.677 128.59 25.67 129.455C25.96 129.661 30.954 129.743 31.136 129.16C28.8 128.801 34.352 128.634 30.029 128.503C29.647 128.155 31.668 127.685 33.702 127.843C33.544 128.175 31.723 128.071 32.976 128.398C34.323 128.005 34.839 128.261 34.364 127.767Z" fill="#212123"/>
<path d="M34.82 129.993C35.901 130.02 36.231 129.981 36.893 129.9C36.711 129.607 35.693 129.968 34.82 129.993Z" fill="#212123"/>
<path d="M7.98801 122.461C9.01201 122.834 10.051 123.081 11.082 123.247C10.367 123.062 10.15 122.858 9.91 122.614C9.669 122.727 7.64901 122.117 7.98801 122.461Z" fill="#212123"/>
<path d="M12.436 123.413C11.987 123.378 11.535 123.308 11.083 123.247C11.416 123.315 11.837 123.395 12.436 123.413Z" fill="#212123"/>
<path d="M9.79001 122.5C9.83001 122.538 9.86701 122.573 9.91101 122.615C9.96001 122.601 9.95901 122.573 9.79001 122.5Z" fill="#212123"/>
<path d="M3.52899 14.2357C3.54899 14.3537 3.581 14.4377 3.63 14.4807C3.586 14.4437 3.55499 14.3547 3.52899 14.2357Z" fill="#212123"/>
<path d="M3.67802 10.0967L3.76002 10.2167L3.72202 8.56269C3.61402 10.1007 3.31799 13.3227 3.52899 14.2357C3.39799 13.4257 3.90402 11.0027 3.67802 10.0967Z" fill="#212123"/>
</svg>
