<svg width="160" height="130" viewBox="0 0 160 130" fill="none" xmlns="http://www.w3.org/2000/svg">
<path d="M16.4732 128.092L18.4452 127.687L16.7092 127.931L16.4732 128.092Z" fill="black"/>
<path d="M34.3752 129.141C34.5262 129.168 34.5702 129.184 34.6582 129.204C34.9282 129.198 35.3012 129.195 35.9342 129.208C35.5192 128.954 37.3772 128.974 34.3752 129.141Z" fill="black"/>
<path d="M34.6572 129.204C35.5232 129.413 33.3382 129.233 34.6572 129.204Z" fill="black"/>
<path d="M40.7502 129.003L39.0142 129.248C39.3782 129.397 40.9262 129.418 40.3522 129.533C42.1342 129.391 41.7662 129.244 40.7502 129.003Z" fill="black"/>
<path d="M42.3942 128.506L41.4942 128.611C41.6532 128.673 41.8912 128.693 42.3942 128.506Z" fill="black"/>
<path d="M40.6182 128.693C40.7732 128.496 40.3972 128.687 39.5862 128.833L41.4942 128.611C41.2422 128.506 41.2132 128.292 40.6182 128.693Z" fill="black"/>
<path d="M38.0092 128.283C34.6842 128.403 35.1782 128.864 38.5032 128.742C37.5272 128.606 36.2672 128.527 38.0092 128.283Z" fill="black"/>
<path d="M51.5822 129.248C51.6892 129.106 50.9942 128.878 50.8632 128.7L49.5802 128.873C50.2412 128.963 51.4932 129.041 51.5822 129.248Z" fill="black"/>
<path d="M50.8632 128.7L52.7822 128.441C51.0662 128.428 50.7532 128.546 50.8632 128.7Z" fill="black"/>
<path d="M39.5472 128.304L43.3062 127.757L42.6982 127.769L39.5472 128.304Z" fill="black"/>
<path d="M57.8332 129.535L59.7692 129.025L58.9192 129.199L57.8332 129.535Z" fill="black"/>
<path d="M63.7862 129.096C62.9832 129.373 64.8952 129.542 64.0452 129.716C65.3672 129.655 66.4932 129.412 67.5082 129.195C66.4282 129.321 65.2772 129.302 63.7862 129.096Z" fill="black"/>
<path d="M69.2112 128.874C68.6722 128.944 68.1142 129.065 67.5072 129.194C68.0802 129.126 68.6442 129.031 69.2112 128.874Z" fill="black"/>
<path d="M56.0552 128.48C56.2052 128.564 56.4932 128.784 57.5712 128.868L56.8122 128.479C56.5812 128.48 56.3202 128.48 56.0552 128.48Z" fill="black"/>
<path d="M56.7852 128.467L56.8122 128.479C57.6322 128.483 58.2012 128.485 58.4452 128.486C58.2342 128.484 57.7352 128.478 56.7852 128.467Z" fill="black"/>
<path d="M55.8642 128.48C55.9342 128.48 55.9862 128.48 56.0542 128.48C55.9822 128.442 55.9382 128.429 55.8642 128.48Z" fill="black"/>
<path d="M52.7332 128.291L54.9222 127.995L52.8812 127.923C52.9212 128.026 53.2912 128.176 52.7332 128.291Z" fill="black"/>
<path d="M54.9212 127.994L55.6782 128.021L55.9192 127.859L54.9212 127.994Z" fill="black"/>
<path d="M65.7122 128.537C66.5922 128.356 67.5562 128.332 68.6452 128.294C67.4772 128.227 66.2702 128.197 65.1232 128.209C64.9632 128.336 64.4612 128.563 65.7122 128.537Z" fill="black"/>
<path d="M61.3732 128.469C61.4342 128.461 61.5112 128.452 61.5692 128.445C61.4482 128.412 61.3522 128.402 61.3732 128.469Z" fill="black"/>
<path d="M79.3672 128.191C79.3082 128.167 79.2552 128.145 79.1942 128.121C79.1812 128.144 79.1722 128.167 79.1552 128.19L79.3672 128.191Z" fill="black"/>
<path d="M64.9272 128.138C64.0492 128.07 63.5262 128.172 63.0272 128.299C63.6832 128.253 64.3782 128.22 65.1242 128.21C65.1952 128.153 65.2092 128.116 64.9272 128.138Z" fill="black"/>
<path d="M72.2012 128.66C71.7432 128.582 71.2242 128.517 70.6792 128.457C71.1272 128.579 72.0402 128.765 72.2012 128.66Z" fill="black"/>
<path d="M61.8662 128.551C61.8222 128.557 61.7822 128.563 61.7352 128.57C62.0232 128.652 61.9872 128.611 61.8662 128.551Z" fill="black"/>
<path d="M61.8662 128.551C62.3172 128.49 62.6712 128.39 63.0272 128.299C62.4932 128.335 61.9982 128.382 61.5702 128.444C61.6782 128.472 61.7872 128.513 61.8662 128.551Z" fill="black"/>
<path d="M75.3522 128.123L74.5232 128.177C75.4702 128.232 76.1482 128.371 77.3982 128.646C78.7772 128.453 79.0622 128.314 79.1562 128.191L75.0702 128.181L75.3522 128.123Z" fill="black"/>
<path d="M70.7972 128.214C71.4412 127.808 73.4322 127.62 72.2072 127.199C71.2322 127.219 70.7682 127.28 70.4652 127.357L70.4082 127.355C70.3902 127.364 70.3882 127.372 70.3752 127.381C69.9932 127.493 69.8632 127.632 69.0512 127.737C69.2332 127.731 69.3892 127.726 69.5342 127.721L69.1832 127.851C70.0882 127.845 70.3202 127.788 70.3532 127.707C71.4872 127.72 68.4072 128.003 70.7662 128.168C69.9942 128.243 69.3002 128.271 68.6452 128.294C69.3532 128.336 70.0362 128.389 70.6792 128.457C70.6432 128.448 70.6182 128.441 70.5892 128.433L70.5712 128.435L70.5752 128.429C70.4052 128.381 70.3492 128.351 70.5402 128.378C70.5532 128.373 70.6012 128.371 70.6222 128.369C70.6482 128.313 70.7202 128.264 70.7982 128.217C71.9372 128.288 70.9782 128.319 70.6222 128.369C70.6092 128.389 70.5782 128.408 70.5752 128.429C70.5752 128.429 70.5842 128.432 70.5902 128.434L74.5232 128.177C73.6882 128.13 72.6462 128.151 70.7972 128.214Z" fill="black"/>
<path d="M54.4632 127.486C54.5022 127.515 54.5412 127.543 54.5812 127.574C54.6402 127.562 54.5882 127.529 54.4632 127.486Z" fill="black"/>
<path d="M79.3142 128.812L81.2012 128.197L79.7442 128.386L79.3142 128.812Z" fill="black"/>
<path d="M83.8502 128.66L84.9722 128.428L84.0032 128.292L83.8502 128.66Z" fill="black"/>
<path d="M157.848 93.3946C158.161 91.9896 158.69 90.4186 158.276 90.5936L157.879 91.0286C157.96 92.0056 157.916 92.7566 157.848 93.3946Z" fill="black"/>
<path d="M127.632 127.627C128.845 127.766 129.81 127.818 130.657 127.824C129.194 127.616 128.012 127.287 127.632 127.627Z" fill="black"/>
<path d="M111.126 3.13363C110.536 3.20363 110.284 3.28363 110.301 3.37363C110.908 3.30763 111.251 3.23263 111.126 3.13363Z" fill="black"/>
<path d="M134.155 127.771C133.941 127.734 133.731 127.717 133.513 127.686C132.629 127.767 131.739 127.834 130.657 127.824C131.737 127.98 132.973 128.068 134.155 127.771Z" fill="black"/>
<path d="M0.884215 114.961C0.858215 114.565 0.855219 113.918 0.848219 113.308C0.821219 113.606 0.825215 114.104 0.884215 114.961Z" fill="black"/>
<path d="M101.145 128.283C101.002 128.329 100.241 128.319 101.145 128.283Z" fill="black"/>
<path d="M99.7832 128.115C100.123 128.161 100.514 128.198 100.94 128.222C100.753 128.193 100.401 128.158 99.7832 128.115Z" fill="black"/>
<path d="M99.9682 128.303C99.6562 128.291 99.4112 128.282 99.1782 128.273C99.0652 128.341 99.1662 128.382 99.9682 128.303Z" fill="black"/>
<path d="M101.145 128.283C101.41 128.275 101.784 128.264 102.403 128.246C101.886 128.258 101.404 128.245 100.94 128.221C101.118 128.247 101.192 128.269 101.145 128.283Z" fill="black"/>
<path d="M159.702 127.218C160.026 127.311 159.861 126.951 159.871 126.754L159.804 126.074C159.756 125.619 159.708 125.164 159.66 124.707C159.552 123.797 159.444 122.878 159.331 121.931C159.275 121.504 159.218 121.071 159.159 120.629C159.141 120.517 159.122 120.4 159.104 120.287C159.125 120.288 159.145 120.29 159.165 120.272C158.568 116.588 158.652 116.812 158.057 114.322C158.056 113.575 158.063 112.792 158.067 111.982L158.182 110.868C158.147 111.061 158.11 111.201 158.071 111.316C158.071 110.66 158.06 109.993 158.038 109.322C158.073 109.331 158.106 109.275 158.136 109.127C158.165 109.509 158.147 110.002 158.104 110.399C158.329 109.121 158.329 107.811 158.237 106.498L158.37 106.319L158.218 106.211C158.196 105.935 158.17 105.658 158.141 105.382L158.356 101.365C158.117 100.311 157.848 99.2996 157.578 98.2446C157.6 97.9276 157.63 97.6126 157.678 97.3046C157.506 96.3256 157.542 95.6126 157.632 94.9226C157.635 95.0136 157.644 95.0956 157.659 95.1656C157.658 95.0646 157.657 94.9156 157.655 94.7626C157.658 94.7436 157.661 94.7236 157.664 94.7036C157.75 95.4346 157.815 96.1926 157.806 96.9636C157.825 95.5026 158.108 95.8156 158.215 96.1836L157.837 93.4686C157.84 93.4436 157.844 93.4196 157.847 93.3946C157.842 93.4146 157.839 93.4336 157.835 93.4536L157.548 91.3906L157.877 91.0276C157.872 90.9356 157.868 90.8626 157.862 90.7676C157.885 90.6026 157.893 90.4756 157.895 90.3666C157.924 89.9436 157.937 89.4076 158.006 88.8376C157.527 89.3756 157.354 88.2826 157.248 86.8416C157.194 86.1136 157.17 85.3666 157.52 84.7956C157.403 84.5716 157.33 83.9796 157.265 83.2476C157.451 83.5346 157.593 84.2866 157.582 85.9366C157.933 84.4156 157.538 83.5046 157.206 82.5366C157.161 81.9746 157.114 81.3786 157.053 80.8166C157.067 80.8456 157.074 80.8786 157.093 80.9046C156.786 79.4986 156.93 76.0416 157.219 76.8486L157.238 77.4516C157.254 75.5756 157.209 72.7886 157.079 70.2886C157.167 70.4236 157.264 70.6946 157.375 71.1356C156.992 68.7046 156.991 68.0266 156.91 67.1086V65.0036C157.114 65.1476 157.303 65.3026 157.371 65.4036L156.91 64.1936V62.0336L157.687 63.1276C157.174 61.7516 157.228 60.9646 157.324 59.9176L156.91 60.3086V59.7926C156.958 59.4306 157.001 59.0276 157.036 58.5646C157.162 58.8396 157.267 59.2256 157.337 59.7846C157.427 58.8286 157.518 57.6466 157.275 55.6346C157.26 55.7376 157.22 55.8476 157.173 55.9586C157.337 51.4416 157.336 45.0146 157.907 40.3086C157.292 41.0406 157.53 39.9776 157.726 38.8286C157.799 38.8016 157.889 38.7296 158.016 38.5716C158.192 36.6076 157.843 37.0426 157.725 36.6356C157.947 36.1976 158.102 35.5216 158.275 36.5436C158.137 33.2666 158.715 31.5006 158.327 29.3146C158.339 29.0966 158.355 28.8786 158.368 28.6596C158.519 28.7846 158.597 29.4086 158.722 29.1336C158.676 28.8456 158.535 27.9946 158.698 27.6286C158.861 27.2706 158.896 28.1576 158.99 28.7246C159.026 26.9036 158.853 25.8946 158.578 25.3046C158.584 25.2316 158.586 25.1586 158.592 25.0866C158.005 25.2996 158.113 21.3886 157.711 20.9806C157.66 20.7586 157.6 20.5336 157.522 20.2926C157.567 20.1856 157.612 20.0666 157.657 19.9536C157.779 20.1216 157.882 20.2466 157.941 20.2256C157.894 20.1126 157.86 19.8716 157.835 19.5656C157.975 19.3466 158.08 19.5106 158.083 20.8616C158.163 19.5896 158.723 13.0996 158.142 12.9476C158.231 12.7356 158.257 12.2356 158.253 11.7666C158.278 11.6696 158.289 11.5816 158.319 11.4806C158.383 11.0256 158.649 10.3626 158.855 9.79063C158.958 9.50463 159.046 9.24163 159.086 9.03863C159.133 8.76863 159.139 8.47663 159.051 8.42863C158.829 9.05163 158.575 9.20163 158.278 9.39663C158.359 7.87363 158.406 7.00563 158.483 5.56463C158.234 5.45563 157.657 5.33463 156.911 5.17163V4.37563H156.062C156.2 4.32863 156.346 4.28163 156.502 4.23563C157.444 3.94663 158.659 3.67663 158 3.41363C157.748 3.57463 156.465 3.74063 155.989 3.79063C154.804 3.60363 156.859 3.29363 153.908 3.26763C153.749 3.41963 153.32 3.48063 152.834 3.49763C152.437 3.52063 152.034 3.50463 151.718 3.48763C151.1 3.45463 150.939 3.42663 152.582 3.75763C150.509 3.89063 150.387 3.57763 147.956 3.54963C148.303 3.74363 147.875 4.03563 147.115 4.31163C146.591 4.28963 145.818 4.22263 144.544 4.06963L144.734 4.37563H140.324C139.408 4.25763 138.462 4.18663 137.591 4.25563C137.016 4.21763 136.437 4.18163 135.845 4.14863C134.545 3.73363 133.179 3.15863 132.237 3.08463C131.883 2.99963 132.798 2.95463 133.294 2.89563C129.034 2.30963 132.739 3.47463 129.561 3.59363C129.436 3.52563 129.402 3.45063 129.4 3.37463C130.06 3.34763 130.619 3.28463 129.825 2.98163C129.794 3.05263 129.655 3.11263 129.441 3.16563C129.494 2.95563 129.452 2.77063 128.183 2.72963C127.688 2.60863 126.307 2.81363 124.682 3.00563C124.809 2.95263 124.549 2.91663 123.425 2.91563C123.231 3.03863 121.69 3.12763 122.155 3.23963C121.037 3.30163 119.946 3.28663 119.062 3.09963C119.704 3.34463 120.341 3.58963 118.864 3.76363C118.337 3.78063 117.72 3.73563 117.064 3.67063L117.134 3.16763L116.003 3.37563C116.518 3.45963 116.65 3.54263 116.866 3.65263C114.745 3.43063 112.229 3.00963 110.707 3.56863C110.42 3.50063 110.312 3.43663 110.3 3.37663C108.984 3.51963 106.422 3.61763 104.81 3.83563C104.096 3.79763 103.423 3.74963 102.813 3.69163C100.064 3.00463 92.8892 4.60963 92.9302 3.35663L87.6122 3.40463L87.7522 3.26063C85.1622 3.17563 83.8482 3.34863 82.8392 3.58363C82.8282 3.55263 82.7602 3.52363 82.5962 3.49763C82.5462 3.61163 82.2702 3.71863 81.8742 3.80263C81.2272 3.70463 81.7442 3.58263 81.8072 3.51263C76.8422 3.20063 76.3472 3.25863 72.1792 3.94163L71.7482 3.48063C70.6182 3.74163 64.5712 2.72263 59.6972 3.23263C59.7452 3.18063 59.8462 3.09263 60.2342 3.02963C54.7502 3.53963 47.1192 1.68663 45.1022 3.34763L41.4832 3.74063C44.5402 3.84163 43.3032 4.11863 42.6152 4.37963H39.4952C39.2622 4.27063 39.4002 4.17363 40.2122 4.14763L40.5652 4.23263C41.4002 3.36563 34.7522 3.89263 34.8812 3.29963C25.6732 3.29363 16.7012 2.76363 8.07721 2.68063L9.06721 3.36363L7.53821 3.33563L6.24721 3.31663C6.11921 3.23963 5.97322 3.13363 5.83722 3.04263L5.00522 2.47463C4.54822 2.12363 4.08921 1.73963 3.81921 1.47563C3.71321 1.32963 3.62921 1.19863 3.58221 1.09363C3.57421 1.07363 3.56621 1.04963 3.55421 1.01963L3.54622 0.98663C3.55622 0.98563 3.60922 1.01863 3.64522 1.03963C3.81122 1.13663 4.05321 1.29663 4.38421 1.53263C4.72721 1.78663 5.14722 2.09663 5.65422 2.47163C5.78422 2.57063 5.91922 2.67363 6.06122 2.78063C6.17222 2.83363 6.23421 2.79463 6.32821 2.80663C6.50321 2.80763 6.69221 2.80863 6.89621 2.81063C6.67621 2.76163 6.42122 2.72963 6.14522 2.71063C6.09922 2.74663 5.95821 2.61663 5.83221 2.51563C5.70621 2.41463 5.57722 2.31163 5.44722 2.20763C5.18922 2.00463 4.92422 1.79663 4.65422 1.58463C4.39122 1.38363 4.12322 1.17963 3.85222 0.973629C3.62122 0.803629 3.20521 0.481629 3.29921 0.591629C3.26721 0.625629 3.24121 0.668631 3.21921 0.712631C3.17521 0.801631 3.14421 0.888629 3.12521 0.952629C3.08421 0.884629 3.16221 1.43563 3.18721 1.46063C2.83221 4.18663 2.68521 3.55163 2.62921 2.16963C2.62021 1.82663 2.60921 1.44563 2.59921 1.08363C2.59621 0.89963 2.59321 0.720631 2.59021 0.553631C2.58921 0.469631 2.58721 0.387631 2.58621 0.310631C2.58521 0.234631 2.58221 0.138632 2.58821 0.156632C2.62221 0.0846316 2.61922 0.0226306 2.53122 0.0196306C2.48722 -0.0773694 2.48421 0.297629 2.46721 0.508629L2.33421 2.64963L2.45721 2.10763C2.49521 3.36963 2.58321 4.05963 2.61921 4.90663C2.63121 5.17963 2.63422 5.48163 2.63222 5.80563C2.63122 5.80563 2.63221 5.80663 2.63121 5.80663L2.63222 5.80563C2.63122 5.98363 2.6312 6.15863 2.6242 6.36263C2.6102 6.64863 2.59421 6.96763 2.57521 7.33163C2.55221 7.62863 2.52621 7.96163 2.49721 8.34063C2.47821 8.45763 2.45921 8.55863 2.44121 8.65163C2.13521 9.36963 1.81721 9.98163 1.49421 9.86663C2.26921 12.2646 0.316206 16.1746 1.41321 20.1096C1.22721 20.9756 1.13221 19.3686 0.924207 19.8306C1.29821 20.8286 1.37021 22.0316 1.18721 24.2596L1.09421 24.0066C1.14521 30.2706 0.751213 32.9536 0.455213 39.9906L0.897214 39.4726C0.828214 40.9846 0.690215 41.3026 0.576215 42.0096C1.23022 43.7496 0.638211 37.7616 1.36221 39.3476C0.940211 40.2816 0.895217 42.6696 0.865217 45.0866C0.785217 45.4916 0.686213 45.8596 0.552213 46.1486C0.718213 45.6586 0.797213 45.9706 0.843213 46.6216C0.805213 48.8176 0.712206 50.7796 0.273206 51.3656C0.262206 53.2006 0.584208 51.7296 0.715208 52.1586C0.739208 52.4406 0.747212 52.7366 0.763212 53.0256L0.492216 53.6286L0.819211 54.1766C0.822211 54.2956 0.820217 54.4196 0.822217 54.5386C0.726217 55.8456 0.417207 56.5166 0.202207 56.5686C0.231207 56.1986 0.141205 55.5156 0.122205 55.1186C-0.186795 56.9556 0.169206 60.1926 0.135206 61.1886L0.290204 59.1426C0.447204 63.1836 0.372212 67.7926 0.457212 72.1936L0.329206 72.7026C0.348206 72.9876 0.41221 73.1986 0.48921 73.3856C0.54621 75.4806 0.642211 77.5186 0.834211 79.3966L0.968213 79.0866C0.821213 83.4546 0.915215 87.8786 1.00721 92.3216C0.920215 92.7046 0.824207 92.8856 0.702207 92.2146C0.875207 93.8506 0.975216 94.6876 1.06122 95.1896C1.16222 101.009 1.15821 106.843 0.481214 112.603C0.786214 110.959 0.826206 112.053 0.842206 113.308C0.915206 112.492 1.24422 113.325 1.46422 113.163L0.868207 118.242C1.48921 119.167 0.912212 123.683 1.49821 124.213L1.39421 122.605C1.66921 123.458 1.96921 123.149 2.28621 122.497C2.28921 122.525 2.29222 122.553 2.29622 122.581C2.33222 122.905 2.3632 123.233 2.3872 123.572C2.4362 124.25 2.45422 124.967 2.42322 125.806C2.76122 126.431 2.82521 127.335 2.89921 128.125C2.92021 128.315 2.94122 128.496 2.96022 128.666C2.97322 128.743 2.9862 128.818 2.9992 128.89C3.0022 128.913 3.00621 128.928 3.01121 128.934C2.90821 128.951 2.83722 128.979 2.79422 129.016C2.76822 128.841 2.74121 128.666 2.71621 128.496C2.63821 128.009 2.54922 127.558 2.44722 127.158C2.41222 127.689 2.46221 128.386 2.54121 129.086C2.56121 129.255 2.58121 129.449 2.60621 129.597L2.73321 129.539C2.82321 129.49 2.91021 129.442 2.99121 129.397C3.07321 129.349 3.14722 129.306 3.20122 129.282C3.22822 129.27 3.25022 129.263 3.26622 129.264C3.27422 129.264 3.28021 129.266 3.28421 129.271C3.30421 129.262 3.39921 129.189 3.44021 129.163C3.64721 129.022 3.72021 129.001 3.60521 129.152C3.54721 129.228 3.44222 129.348 3.27922 129.524C3.19522 129.613 3.09822 129.715 2.98822 129.831C2.90322 129.923 2.90422 129.938 2.85422 129.999L2.92921 129.905L3.20421 129.632L3.78421 129.074C4.16421 128.715 4.53022 128.382 4.88922 128.065C5.24022 127.765 5.59322 127.462 5.95122 127.155C5.99422 127.121 6.04221 127.077 6.08021 127.051L6.15521 127.043L6.3052 127.029L6.60721 127.006C6.80821 126.997 7.01321 126.988 7.22221 126.979C7.40421 126.977 7.59022 126.975 7.77922 126.973C8.06322 126.982 8.35721 126.991 8.66121 127.001C9.87521 127.056 11.2382 127.141 12.7012 126.747L12.5102 127.188C12.9732 127.116 13.9322 126.904 14.7862 126.91L13.2452 127.488C15.6142 126.989 17.8192 127.889 20.0922 127.612C15.3292 127.651 19.0202 127.088 17.0052 126.778C22.3992 126.209 20.7442 127.64 25.5362 127.686C24.4732 127.768 23.3742 127.849 22.4602 127.76L22.0912 127.612L21.0882 128.152C23.8012 128.046 27.3222 127.663 29.2342 127.831C29.1062 127.761 28.9422 127.714 28.7672 127.675C31.6662 127.595 30.2252 127.413 29.6452 127.216C29.7922 127.208 29.8872 127.188 29.8682 127.142L29.4442 127.083C29.4602 127.038 29.5822 126.993 29.8702 126.949C31.3562 127.477 32.0092 126.72 33.9182 126.538L33.9342 126.985C38.9012 127.245 35.2462 126.047 39.7182 126.369L37.8322 126.999L40.1622 126.826L39.6842 127.337C42.2172 126.946 43.0072 127.04 45.4922 127.169C44.9132 126.857 45.8122 126.356 48.0122 126.331C49.5032 126.587 47.2102 126.758 50.2372 126.681C50.1632 126.706 50.1132 126.732 50.0982 126.758C49.4442 127.021 48.6972 127.282 47.4622 126.914C47.3242 127.06 46.7692 127.198 46.6272 127.343C47.2212 127.452 47.9282 127.487 48.6392 127.487C48.6182 127.664 48.9582 127.828 47.7332 128.079C48.6252 127.896 50.2772 127.695 49.7962 127.462C50.5972 127.432 51.3302 127.385 51.8162 127.38C51.3812 127.366 50.8622 127.344 50.5952 127.282L52.3172 127.037C53.2502 127.174 54.1282 127.368 54.4592 127.483C54.1632 127.266 53.8632 127.083 53.3792 126.886L55.1112 126.639C55.8232 126.803 55.2602 126.941 54.7012 127.076C55.6162 127.023 56.2482 126.814 57.5942 126.768C57.2482 127.133 57.3332 127.508 55.4292 127.689L59.7332 127.263C60.0212 127.419 61.9452 127.685 61.3872 127.822C63.7752 128.023 67.2392 127.086 70.4052 127.351C70.5692 127.28 70.8992 127.21 71.5712 127.155C73.6622 127.202 75.5922 127.423 77.7742 127.374C78.1432 127.645 78.6452 127.908 79.1902 128.117C79.2492 127.956 79.2482 127.808 81.2622 127.571C80.9572 127.488 80.0852 127.398 79.3252 127.294C79.7722 127.256 80.2292 127.206 80.7062 127.136L82.7102 127.777C85.4702 127.615 79.9982 126.971 84.5942 126.701C86.4392 126.573 86.5832 126.767 86.5702 126.991C86.2522 127.004 85.9312 127.018 85.6212 127.008C85.4862 127.189 85.9582 127.089 86.5672 127.018C86.5512 127.181 86.4852 127.354 86.9542 127.426C87.1602 127.383 87.3872 127.334 87.6302 127.283C88.0612 127.363 89.0082 127.243 89.9632 127.118C89.9222 127.022 89.8102 126.961 89.6462 126.923C90.1022 126.858 90.5772 126.803 91.0782 126.77C91.0702 126.774 91.0592 126.775 91.0522 126.78L92.2032 126.994C92.0332 126.996 91.8632 126.998 91.6852 127.008L92.8422 127.185C90.8552 127.501 88.4422 128.085 86.0052 127.936C86.0402 127.953 86.0692 127.965 86.1022 127.98C85.5092 127.881 85.2182 127.83 85.3482 128.208C85.7462 128.216 86.1782 128.192 86.6112 128.167C87.0192 128.254 87.0362 128.026 88.3822 128.504C87.6092 128.108 89.1862 128.095 90.6682 128.083C90.8142 128.132 91.0362 128.192 91.3702 128.269C91.3882 128.195 91.4402 128.131 91.5122 128.073C92.5032 128.053 93.1792 127.99 92.5852 127.736C92.5922 127.735 92.5992 127.734 92.6062 127.733C94.3082 128.323 95.6332 127.959 97.9152 128.55C97.8392 128.364 97.0612 128.201 99.1762 128.27C99.2712 128.214 99.4952 128.142 99.6382 128.1C99.7032 128.106 99.7252 128.108 99.7812 128.112C99.7392 128.104 99.7072 128.099 99.6642 128.091C99.7552 128.062 99.7632 128.056 99.6212 128.084C99.1162 128.008 98.7072 127.913 98.5412 127.811C99.5862 127.37 102.948 127.345 104.083 127.109C105.339 127.183 103.561 127.33 104.248 127.522L105.925 127.173L106.089 127.406L106.38 127.413C107.196 127.687 108.651 127.881 106.332 128.1L108.993 128.087C110.562 128.302 112.718 128.369 114.044 128.178C115.3 128.252 117.208 127.676 116.119 128.016L120.288 127.704L120.328 127.808C121.762 127.809 123.226 127.711 124.722 127.613C125.761 127.705 126.957 127.734 128.407 127.971C128.169 127.884 127.353 127.706 126.576 127.5C127.53 127.448 128.5 127.419 129.484 127.421L130.806 127.727L130.944 127.581C130.749 127.474 130.475 127.438 130.052 127.419C131.184 127.439 132.336 127.516 133.512 127.685C134.897 127.558 136.327 127.413 138.649 127.488L139.108 127.84C140.886 127.683 144.463 128.105 145.221 127.716C146.19 128.185 148.359 128.183 150.674 128.085C152.142 128.008 153.658 127.928 155.055 127.854C156.929 127.757 158.616 127.682 159.999 127.677L159.702 127.218ZM157.767 23.3326L157.846 24.5206C157.753 24.4736 157.659 24.4336 157.565 24.3966C157.653 24.0026 157.718 23.6566 157.767 23.3326ZM156.91 5.24263L157.234 5.35363C157.121 5.37163 157.018 5.37363 156.91 5.38363V5.24263ZM156.91 20.4486C156.965 20.2736 157.014 20.1096 157.049 19.9736L157.241 23.6166C157.164 23.9166 157.048 23.8276 156.91 23.5476V20.4486ZM5.21321 4.37363H5.20221C5.20221 4.36963 5.20122 4.36163 5.20122 4.36063L5.21321 4.37363ZM8.47421 126.777C8.21621 126.807 7.94121 126.827 7.59421 126.841C7.35621 126.847 7.10721 126.853 6.85121 126.859C6.72221 126.861 6.59121 126.863 6.45921 126.866L6.25921 126.869C6.19221 126.869 6.13821 126.847 6.00021 126.972C5.53021 127.328 5.05021 127.691 4.56321 128.06L3.82622 128.62L3.64021 128.761C3.57121 128.814 3.51021 128.86 3.52221 128.848L3.4712 128.875L3.38222 128.925C3.34222 128.903 3.30821 128.896 3.31621 128.918C3.18921 128.914 3.09622 128.922 3.01822 128.935C3.02322 128.94 3.02921 128.938 3.03721 128.925L3.0812 128.881C3.2032 128.757 3.35421 128.564 3.56621 128.237L3.34121 128.437C3.31821 128.481 3.31221 128.422 3.30821 128.363L2.81021 123.912C2.91921 124.673 3.06521 125.374 3.21821 126.034C3.29421 126.352 3.37221 126.675 3.45221 127.006C3.49021 127.164 3.5292 127.323 3.5682 127.485L3.62521 127.726L3.65321 127.847C3.65821 127.863 3.66022 127.897 3.66922 127.899L3.70521 127.858C3.89821 127.634 4.09721 127.403 4.30421 127.162C4.40521 127.044 4.50821 126.923 4.61421 126.799L4.76921 126.618C4.77421 126.592 4.86121 126.551 4.94021 126.511L5.17021 126.396C5.76221 126.134 6.48422 125.669 6.90422 125.811C7.14922 125.822 7.40121 125.832 7.66021 125.844C7.87921 125.863 8.10522 125.883 8.33722 125.904C8.16922 125.979 7.90021 126.066 7.38521 126.149C7.11521 126.187 6.82722 126.228 6.54422 126.269L6.32721 126.296C6.25321 126.308 6.11722 126.431 6.01622 126.494C5.79322 126.652 5.57721 126.805 5.37321 126.95C5.63921 126.806 5.91821 126.638 6.20221 126.46C6.42221 126.395 6.57121 126.453 6.76021 126.435C7.09621 126.433 7.52922 126.413 7.78122 126.394C8.30722 126.356 8.83921 126.319 9.40121 126.427C9.32021 126.613 8.97921 126.716 8.47421 126.777ZM26.0512 127.65C25.0622 127.577 23.9892 127.366 25.0182 127.21C26.1782 127.288 27.6752 127.432 28.5022 127.632C27.8462 127.541 26.9842 127.581 26.0512 127.65ZM92.3602 127.653C92.3482 127.649 92.3392 127.645 92.3272 127.641C92.3392 127.646 92.3502 127.648 92.3622 127.653C92.3612 127.653 92.3612 127.653 92.3602 127.653ZM94.3552 126.925L94.3502 126.919C94.3602 126.921 94.3692 126.921 94.3792 126.923C94.3702 126.924 94.3632 126.924 94.3552 126.925ZM111.044 127.803C111.072 127.794 111.091 127.788 111.114 127.78C112.588 127.937 112.065 127.874 111.044 127.803ZM120.533 126.279C115.464 126.384 116.003 127.681 111.176 127.206C110.317 127.006 110.167 126.799 110.243 126.6L111.304 126.481C112.011 126.498 111.98 126.65 111.465 126.691L115.558 126.577L115.525 126.614C116.16 126.413 117.6 126.1 118.303 125.967C119.436 126.141 117.736 126.104 118.026 126.259L120.493 125.941C120.864 126.059 120.819 126.178 120.533 126.279ZM123.535 126.641C123.455 126.647 123.392 126.649 123.319 126.654C123.899 126.271 124.39 126.338 125.118 126.452C124.612 126.522 124.084 126.586 123.535 126.641ZM157.477 89.9936C157.436 90.1016 157.418 90.2286 157.392 90.3486C157.366 90.3896 157.34 90.4286 157.315 90.4746C157.293 90.3186 157.268 90.1776 157.244 90.0296C157.316 90.0026 157.393 89.9856 157.477 89.9936ZM156.95 79.7396C156.954 79.8546 156.955 79.9516 156.956 80.0476C156.947 79.9896 156.937 79.9366 156.928 79.8816C156.937 79.8326 156.94 79.7886 156.95 79.7396ZM158.014 108.581C158.066 108.656 158.1 108.802 158.122 108.981C158.093 109.032 158.063 109.08 158.032 109.107C158.025 108.931 158.023 108.756 158.014 108.581Z" fill="black"/>
<path d="M91.9872 128.322C92.0252 128.411 92.3022 128.531 91.9962 128.573L93.7522 128.45C92.8052 128.482 92.4662 128.388 91.9872 128.322Z" fill="black"/>
<path d="M104.11 127.94C103.459 127.851 103.707 128.425 103.338 128.277C102.617 128.764 107.668 127.646 104.11 127.94Z" fill="black"/>
<path d="M0.393219 121.64L0.195221 123.462L0.513214 122.286L0.393219 121.64Z" fill="black"/>
<path d="M0.489212 125.566L1.03221 126.662C1.00621 126.25 0.95421 125.451 1.09021 125.138L0.489212 125.566Z" fill="black"/>
<path d="M115.356 126.796L115.526 126.615C115.203 126.716 115.071 126.79 115.356 126.796Z" fill="black"/>
<path d="M158.183 110.867C158.258 110.448 158.321 109.85 158.374 109.009L158.183 110.867Z" fill="black"/>
<path d="M0.127215 55.1176C0.145215 55.0166 0.15421 54.8956 0.17621 54.8046C0.12221 54.7736 0.119215 54.9126 0.127215 55.1176Z" fill="black"/>
<path d="M4.35622 127.63C4.26822 127.698 4.19021 127.758 4.12321 127.809C4.07321 127.851 4.07921 127.856 4.05821 127.877C4.02021 127.922 4.00722 127.941 4.00322 127.949C4.10622 127.866 4.74821 127.4 5.37221 126.95C5.25621 127.011 5.12521 127.081 4.99721 127.149C4.73821 127.343 4.52622 127.502 4.35622 127.63Z" fill="black"/>
<path d="M157.357 59.8856C157.349 59.8436 157.344 59.8206 157.337 59.7826C157.333 59.8246 157.328 59.8796 157.324 59.9176L157.357 59.8856Z" fill="black"/>
<path d="M156.47 3.12763C157.333 3.22263 157.756 3.31863 157.999 3.41163C158.151 3.30763 157.838 3.20463 156.47 3.12763Z" fill="black"/>
</svg>
